<svg width="68" height="31" viewBox="0 0 68 31" fill="none" xmlns="http://www.w3.org/2000/svg">
<path d="M1.04903 11.2228V0.156962H5.88708C7.08746 0.156962 8.01123 0.413333 8.65839 0.926076C9.30555 1.42835 9.62913 2.12945 9.62913 3.02937C9.62913 3.69907 9.43081 4.26413 9.03416 4.72456C8.63751 5.18498 8.08951 5.49367 7.39016 5.65063V5.41519C8.1939 5.5303 8.81496 5.82329 9.25336 6.29418C9.7022 6.7546 9.92662 7.36675 9.92662 8.13063C9.92662 9.11426 9.58738 9.87814 8.90891 10.4223C8.23043 10.9559 7.28578 11.2228 6.07496 11.2228H1.04903ZM2.99051 9.68456H5.84011C6.51858 9.68456 7.04571 9.55899 7.42148 9.30785C7.79725 9.04624 7.98513 8.62245 7.98513 8.03646C7.98513 7.44 7.79725 7.0162 7.42148 6.76506C7.04571 6.50346 6.51858 6.37266 5.84011 6.37266H2.99051V9.68456ZM2.99051 4.85013H5.54262C6.26285 4.85013 6.79519 4.71932 7.13965 4.45772C7.49454 4.18565 7.67199 3.78802 7.67199 3.26481C7.67199 2.7416 7.49454 2.3492 7.13965 2.0876C6.79519 1.81553 6.26285 1.67949 5.54262 1.67949H2.99051V4.85013Z" fill="black"/>
<path d="M10.5615 11.2228L15.5561 0.156962H17.2471L22.3043 11.2228H20.2532L18.9067 8.11494L19.7209 8.6643H13.0979L13.9434 8.11494L12.5969 11.2228H10.5615ZM16.3859 2.32304L14.1783 7.56557L13.7712 7.07899H19.032L18.7032 7.56557L16.4485 2.32304H16.3859Z" fill="black"/>
<path d="M28.4317 11.3797C27.2836 11.3797 26.2972 11.1495 25.4726 10.6891C24.6584 10.2182 24.0321 9.55899 23.5937 8.71139C23.1553 7.85333 22.9361 6.84354 22.9361 5.68203C22.9361 4.52051 23.1553 3.51595 23.5937 2.66835C24.0321 1.82076 24.6584 1.16675 25.4726 0.706329C26.2972 0.235443 27.2836 0 28.4317 0C29.2042 0 29.8983 0.109874 30.5141 0.329621C31.1404 0.549367 31.678 0.873755 32.1268 1.30278L31.4692 2.9038C30.9786 2.50616 30.5037 2.22363 30.0444 2.0562C29.5956 1.87831 29.0789 1.78937 28.4944 1.78937C27.3775 1.78937 26.5216 2.12945 25.9266 2.80962C25.3421 3.47932 25.0498 4.43679 25.0498 5.68203C25.0498 6.92726 25.3421 7.88996 25.9266 8.57013C26.5216 9.2503 27.3775 9.59038 28.4944 9.59038C29.0789 9.59038 29.5956 9.50667 30.0444 9.33924C30.5037 9.16135 30.9786 8.86835 31.4692 8.46025L32.1268 10.0613C31.678 10.4798 31.1404 10.8042 30.5141 11.0344C29.8983 11.2646 29.2042 11.3797 28.4317 11.3797Z" fill="black"/>
<path d="M34.0146 11.2228V0.156962H36.0344V5.05418H36.0657L40.8724 0.156962H43.3149L37.5531 5.91747L37.5688 5.03848L43.6907 11.2228H41.1699L36.0657 6.10582H36.0344V11.2228H34.0146Z" fill="black"/>
<path d="M51.3381 11.2228V1.82076H47.69V0.156962H57.006V1.82076H53.3579V11.2228H51.3381Z" fill="black"/>
<path d="M57.4001 5.68203C57.4001 4.52051 57.6089 3.51595 58.0264 2.66835C58.4544 1.82076 59.065 1.16675 59.8583 0.706329C60.6516 0.235443 61.5962 0 62.6922 0C63.7778 0 64.7172 0.235443 65.5105 0.706329C66.3038 1.16675 66.9144 1.82076 67.3424 2.66835C67.7808 3.51595 68 4.51527 68 5.66633C68 6.82785 67.7808 7.83764 67.3424 8.6957C66.9144 9.54329 66.3038 10.2025 65.5105 10.6734C64.7172 11.1443 63.7778 11.3797 62.6922 11.3797C61.5962 11.3797 60.6516 11.1443 59.8583 10.6734C59.0754 10.2025 58.47 9.54329 58.0421 8.6957C57.6141 7.83764 57.4001 6.83308 57.4001 5.68203ZM59.5138 5.68203C59.5138 6.92726 59.78 7.90042 60.3123 8.60152C60.8447 9.30262 61.638 9.65316 62.6922 9.65316C63.7152 9.65316 64.5032 9.30262 65.0565 8.60152C65.6097 7.90042 65.8863 6.92726 65.8863 5.68203C65.8863 4.42633 65.6097 3.45316 65.0565 2.76253C64.5137 2.0719 63.7256 1.72658 62.6922 1.72658C61.638 1.72658 60.8447 2.0719 60.3123 2.76253C59.78 3.45316 59.5138 4.42633 59.5138 5.68203Z" fill="black"/>
<path d="M3.64811 30.843V21.441H0V19.7772H9.31599V21.441H5.66788V30.843H3.64811Z" fill="black"/>
<path d="M10.743 30.843V19.7772H12.7628V24.3919H18.415V19.7772H20.4348V30.843H18.415V26.0714H12.7628V30.843H10.743Z" fill="black"/>
<path d="M22.8681 30.843V19.7772H30.3052V21.3625H24.8096V24.4233H29.9451V26.0243H24.8096V29.242H30.3052V30.843H22.8681Z" fill="black"/>
<path d="M39.0754 30.843V21.441H35.4273V19.7772H44.7433V21.441H41.0952V30.843H39.0754Z" fill="black"/>
<path d="M45.1374 25.3023C45.1374 24.1408 45.3462 23.1362 45.7637 22.2886C46.1917 21.441 46.8023 20.787 47.5956 20.3266C48.3889 19.8557 49.3335 19.6203 50.4295 19.6203C51.5151 19.6203 52.4545 19.8557 53.2478 20.3266C54.0411 20.787 54.6517 21.441 55.0797 22.2886C55.5181 23.1362 55.7373 24.1355 55.7373 25.2866C55.7373 26.4481 55.5181 27.4579 55.0797 28.3159C54.6517 29.1635 54.0411 29.8228 53.2478 30.2937C52.4545 30.7646 51.5151 31 50.4295 31C49.3335 31 48.3889 30.7646 47.5956 30.2937C46.8127 29.8228 46.2073 29.1635 45.7794 28.3159C45.3514 27.4579 45.1374 26.4533 45.1374 25.3023ZM47.2511 25.3023C47.2511 26.5475 47.5173 27.5207 48.0496 28.2218C48.582 28.9229 49.3753 29.2734 50.4295 29.2734C51.4525 29.2734 52.2405 28.9229 52.7937 28.2218C53.347 27.5207 53.6236 26.5475 53.6236 25.3023C53.6236 24.0466 53.347 23.0734 52.7937 22.3828C52.251 21.6921 51.4629 21.3468 50.4295 21.3468C49.3753 21.3468 48.582 21.6921 48.0496 22.3828C47.5173 23.0734 47.2511 24.0466 47.2511 25.3023Z" fill="black"/>
<path d="M57.8214 30.843V19.7772H62.7221C63.9329 19.7772 64.8567 20.0702 65.4934 20.6562C66.1301 21.2422 66.4485 22.0479 66.4485 23.0734C66.4485 24.0884 66.1301 24.8942 65.4934 25.4906C64.8567 26.0871 63.9329 26.3853 62.7221 26.3853H59.8412V30.843H57.8214ZM59.8412 24.7843H62.4872C63.1553 24.7843 63.6563 24.6378 63.9903 24.3448C64.3243 24.0413 64.4913 23.6176 64.4913 23.0734C64.4913 22.5293 64.3243 22.1107 63.9903 21.8177C63.6563 21.5143 63.1553 21.3625 62.4872 21.3625H59.8412V24.7843Z" fill="black"/>
</svg>
