<svg width="311" height="25" viewBox="0 0 311 25" fill="none" xmlns="http://www.w3.org/2000/svg">
<path d="M0 18.6959V0.787464H7.84924C9.79673 0.787464 11.2955 1.20236 12.3454 2.03217C13.3954 2.84503 13.9203 3.97966 13.9203 5.43604C13.9203 6.51986 13.5986 7.43434 12.9551 8.17946C12.3115 8.92459 11.4225 9.42417 10.2878 9.67819V9.29716C11.5918 9.48344 12.5994 9.95761 13.3107 10.7197C14.0389 11.4648 14.403 12.4555 14.403 13.6917C14.403 15.2836 13.8526 16.5198 12.7518 17.4004C11.6511 18.2641 10.1185 18.6959 8.15406 18.6959H0ZM3.14986 16.2065H7.77303C8.87379 16.2065 9.72899 16.0033 10.3386 15.5969C10.9483 15.1735 11.2531 14.4876 11.2531 13.5393C11.2531 12.574 10.9483 11.8882 10.3386 11.4817C9.72899 11.0584 8.87379 10.8467 7.77303 10.8467H3.14986V16.2065ZM3.14986 8.38268H7.29039C8.45889 8.38268 9.32256 8.171 9.8814 7.74763C10.4572 7.30733 10.7451 6.66381 10.7451 5.81707C10.7451 4.97034 10.4572 4.33529 9.8814 3.91192C9.32256 3.47162 8.45889 3.25146 7.29039 3.25146H3.14986V8.38268Z" fill="#FFAB07"/>
<path d="M23.076 18.9499C21.7551 18.9499 20.612 18.679 19.6467 18.1371C18.6814 17.5952 17.9278 16.8246 17.3859 15.8255C16.8609 14.8263 16.5985 13.6409 16.5985 12.2692C16.5985 10.8975 16.8609 9.72052 17.3859 8.73831C17.9278 7.73916 18.6814 6.96863 19.6467 6.42672C20.612 5.88481 21.7551 5.61386 23.076 5.61386C24.3969 5.61386 25.54 5.88481 26.5053 6.42672C27.4875 6.96863 28.2411 7.73916 28.766 8.73831C29.308 9.72052 29.5789 10.8975 29.5789 12.2692C29.5789 13.6409 29.308 14.8263 28.766 15.8255C28.2411 16.8246 27.4875 17.5952 26.5053 18.1371C25.54 18.679 24.3969 18.9499 23.076 18.9499ZM23.076 16.5113C24.0751 16.5113 24.8711 16.1642 25.4638 15.4699C26.0565 14.7586 26.3529 13.6917 26.3529 12.2692C26.3529 10.8467 26.0565 9.78826 25.4638 9.09394C24.8711 8.39962 24.0751 8.05245 23.076 8.05245C22.0768 8.05245 21.2809 8.39962 20.6882 9.09394C20.0955 9.78826 19.7991 10.8467 19.7991 12.2692C19.7991 13.6917 20.0955 14.7586 20.6882 15.4699C21.2809 16.1642 22.0768 16.5113 23.076 16.5113Z" fill="#FFAB07"/>
<path d="M38.1088 18.9499C36.7879 18.9499 35.6448 18.679 34.6796 18.1371C33.7143 17.5952 32.9607 16.8246 32.4188 15.8255C31.8938 14.8263 31.6313 13.6409 31.6313 12.2692C31.6313 10.8975 31.8938 9.72052 32.4188 8.73831C32.9607 7.73916 33.7143 6.96863 34.6796 6.42672C35.6448 5.88481 36.7879 5.61386 38.1088 5.61386C39.4298 5.61386 40.5728 5.88481 41.5381 6.42672C42.5203 6.96863 43.2739 7.73916 43.7989 8.73831C44.3408 9.72052 44.6118 10.8975 44.6118 12.2692C44.6118 13.6409 44.3408 14.8263 43.7989 15.8255C43.2739 16.8246 42.5203 17.5952 41.5381 18.1371C40.5728 18.679 39.4298 18.9499 38.1088 18.9499ZM38.1088 16.5113C39.108 16.5113 39.9039 16.1642 40.4966 15.4699C41.0894 14.7586 41.3857 13.6917 41.3857 12.2692C41.3857 10.8467 41.0894 9.78826 40.4966 9.09394C39.9039 8.39962 39.108 8.05245 38.1088 8.05245C37.1097 8.05245 36.3138 8.39962 35.7211 9.09394C35.1283 9.78826 34.832 10.8467 34.832 12.2692C34.832 13.6917 35.1283 14.7586 35.7211 15.4699C36.3138 16.1642 37.1097 16.5113 38.1088 16.5113Z" fill="#FFAB07"/>
<path d="M51.9224 18.9499C50.8217 18.9499 49.8056 18.8229 48.8742 18.5689C47.9597 18.298 47.1892 17.9254 46.5626 17.4512L47.4516 15.3174C48.0952 15.7577 48.8064 16.0964 49.5854 16.3335C50.3644 16.5706 51.1519 16.6892 51.9478 16.6892C52.7945 16.6892 53.4211 16.5452 53.8276 16.2573C54.2509 15.9694 54.4626 15.5799 54.4626 15.0888C54.4626 14.6993 54.3271 14.3945 54.0562 14.1744C53.8022 13.9373 53.3873 13.7595 52.8115 13.6409L50.2713 13.1583C49.1875 12.9212 48.3577 12.5148 47.7819 11.939C47.223 11.3632 46.9436 10.6096 46.9436 9.67819C46.9436 8.88226 47.1553 8.17946 47.5787 7.56982C48.019 6.96017 48.6371 6.48599 49.433 6.1473C50.2459 5.79167 51.1942 5.61386 52.278 5.61386C53.2264 5.61386 54.1155 5.74087 54.9453 5.99489C55.792 6.24891 56.5032 6.62994 57.079 7.13798L56.1646 9.19555C55.6396 8.77218 55.0384 8.44195 54.361 8.20487C53.6836 7.96778 53.0232 7.84924 52.3796 7.84924C51.499 7.84924 50.8555 8.01012 50.4491 8.33188C50.0427 8.6367 49.8394 9.03467 49.8394 9.52577C49.8394 9.89834 49.958 10.2116 50.1951 10.4657C50.4491 10.7027 50.8386 10.8806 51.3636 10.9991L53.9038 11.4817C55.0384 11.7019 55.8936 12.0914 56.4694 12.6502C57.0621 13.1921 57.3584 13.9373 57.3584 14.8856C57.3584 15.7323 57.1298 16.4605 56.6726 17.0702C56.2154 17.6798 55.5803 18.1455 54.7674 18.4673C53.9546 18.7891 53.0062 18.9499 51.9224 18.9499Z" fill="#FFAB07"/>
<path d="M65.4387 18.9499C63.9146 18.9499 62.763 18.552 61.984 17.756C61.205 16.9601 60.8155 15.7662 60.8155 14.1744V8.25567H58.3515V5.86788H60.8155V2.59101L63.9908 1.77815V5.86788H67.4201V8.25567H63.9908V13.9711C63.9908 14.8517 64.1601 15.4699 64.4988 15.8255C64.8375 16.1811 65.3032 16.3589 65.8959 16.3589C66.2177 16.3589 66.4886 16.3335 66.7088 16.2827C66.9459 16.2319 67.1745 16.1642 67.3946 16.0795V18.5943C67.1068 18.7129 66.785 18.7975 66.4294 18.8483C66.0907 18.9161 65.7604 18.9499 65.4387 18.9499Z" fill="#FFAB07"/>
<path d="M82.4408 18.9499C81.1199 18.9499 79.9599 18.679 78.9607 18.1371C77.9785 17.5952 77.2164 16.8246 76.6745 15.8255C76.1326 14.8094 75.8617 13.607 75.8617 12.2184C75.8617 10.8297 76.1326 9.64432 76.6745 8.6621C77.2334 7.67989 78.0039 6.9263 78.9861 6.40132C79.9683 5.87634 81.1199 5.61386 82.4408 5.61386C83.2875 5.61386 84.1089 5.74933 84.9048 6.02029C85.7177 6.27431 86.3781 6.64687 86.8862 7.13798L85.9209 9.34796C85.4636 8.92459 84.9471 8.6113 84.3714 8.40808C83.8125 8.18793 83.2621 8.07786 82.7202 8.07786C81.5856 8.07786 80.6965 8.43349 80.053 9.14474C79.4264 9.856 79.1131 10.889 79.1131 12.2438C79.1131 13.5986 79.4264 14.6401 80.053 15.3682C80.6965 16.0964 81.5856 16.4605 82.7202 16.4605C83.2452 16.4605 83.7871 16.3589 84.346 16.1557C84.9217 15.9525 85.4467 15.6392 85.9209 15.2158L86.8862 17.4004C86.3612 17.8915 85.6923 18.2726 84.8794 18.5435C84.0835 18.8145 83.2706 18.9499 82.4408 18.9499Z" fill="#FFAB07"/>
<path d="M89.3224 18.6959V9.14474C89.3224 8.60283 89.3054 8.05245 89.2716 7.49361C89.2546 6.93476 89.2123 6.39285 89.1446 5.86788H92.2182L92.5738 9.37336H92.0658C92.2352 8.52663 92.5146 7.82384 92.9041 7.26499C93.3105 6.70615 93.8016 6.29125 94.3774 6.02029C94.9532 5.74933 95.5798 5.61386 96.2571 5.61386C96.562 5.61386 96.8075 5.63079 96.9938 5.66466C97.1801 5.6816 97.3664 5.72393 97.5527 5.79167L97.5273 8.5859C97.2055 8.45042 96.9261 8.36575 96.689 8.33188C96.4688 8.29801 96.1894 8.28107 95.8507 8.28107C95.1225 8.28107 94.5044 8.43349 93.9964 8.73831C93.5053 9.04313 93.1327 9.4665 92.8787 10.0084C92.6416 10.5503 92.523 11.1684 92.523 11.8628V18.6959H89.3224Z" fill="#FFAB07"/>
<path d="M105.32 18.9499C103.169 18.9499 101.484 18.3572 100.265 17.1718C99.0454 15.9864 98.4358 14.3606 98.4358 12.2946C98.4358 10.9568 98.6983 9.78826 99.2232 8.78911C99.7482 7.78997 100.476 7.01097 101.408 6.45212C102.356 5.89328 103.457 5.61386 104.71 5.61386C105.946 5.61386 106.979 5.87634 107.809 6.40132C108.639 6.9263 109.266 7.66296 109.689 8.6113C110.129 9.55964 110.349 10.6689 110.349 11.939V12.7772H101.001V11.1007H108.089L107.657 11.4563C107.657 10.2709 107.403 9.36489 106.895 8.73831C106.404 8.11173 105.684 7.79843 104.735 7.79843C103.686 7.79843 102.873 8.171 102.297 8.91612C101.738 9.66125 101.459 10.7027 101.459 12.0406V12.3708C101.459 13.7595 101.797 14.8009 102.475 15.4953C103.169 16.1726 104.143 16.5113 105.396 16.5113C106.124 16.5113 106.802 16.4182 107.428 16.2319C108.072 16.0287 108.681 15.7069 109.257 15.2666L110.197 17.4004C109.587 17.8915 108.859 18.2726 108.012 18.5435C107.166 18.8145 106.268 18.9499 105.32 18.9499Z" fill="#FFAB07"/>
<path d="M118.017 18.9499C116.899 18.9499 115.909 18.6875 115.045 18.1625C114.198 17.6206 113.538 16.85 113.064 15.8509C112.589 14.8517 112.352 13.6578 112.352 12.2692C112.352 10.8806 112.589 9.69512 113.064 8.71291C113.538 7.71376 114.198 6.9517 115.045 6.42672C115.909 5.88481 116.899 5.61386 118.017 5.61386C119.084 5.61386 120.024 5.87634 120.837 6.40132C121.666 6.90936 122.217 7.60368 122.488 8.48429H122.158V0H125.333V18.6959H122.208V15.9779H122.513C122.242 16.8924 121.692 17.6206 120.862 18.1625C120.049 18.6875 119.101 18.9499 118.017 18.9499ZM118.906 16.5113C119.905 16.5113 120.71 16.1642 121.319 15.4699C121.929 14.7586 122.234 13.6917 122.234 12.2692C122.234 10.8467 121.929 9.78826 121.319 9.09394C120.71 8.39962 119.905 8.05245 118.906 8.05245C117.907 8.05245 117.094 8.39962 116.467 9.09394C115.858 9.78826 115.553 10.8467 115.553 12.2692C115.553 13.6917 115.858 14.7586 116.467 15.4699C117.094 16.1642 117.907 16.5113 118.906 16.5113Z" fill="#FFAB07"/>
<path d="M128.79 18.6959V5.86788H131.966V18.6959H128.79ZM128.613 3.45468V0.355628H132.144V3.45468H128.613Z" fill="#FFAB07"/>
<path d="M142.755 18.9499C141.671 18.9499 140.723 18.6875 139.91 18.1625C139.097 17.6206 138.555 16.8924 138.284 15.9779H138.564V18.6959H135.414V0H138.589V8.48429H138.284C138.572 7.60368 139.123 6.90936 139.935 6.40132C140.748 5.87634 141.688 5.61386 142.755 5.61386C143.89 5.61386 144.88 5.88481 145.727 6.42672C146.574 6.96863 147.234 7.73916 147.708 8.73831C148.183 9.72052 148.42 10.906 148.42 12.2946C148.42 13.6832 148.183 14.8771 147.708 15.8763C147.234 16.8585 146.565 17.6206 145.702 18.1625C144.855 18.6875 143.873 18.9499 142.755 18.9499ZM141.866 16.5113C142.865 16.5113 143.67 16.1642 144.279 15.4699C144.906 14.7755 145.219 13.7171 145.219 12.2946C145.219 10.8721 144.906 9.81366 144.279 9.11934C143.67 8.40808 142.865 8.05245 141.866 8.05245C140.867 8.05245 140.062 8.39962 139.453 9.09394C138.843 9.78826 138.538 10.8467 138.538 12.2692C138.538 13.6917 138.843 14.7586 139.453 15.4699C140.062 16.1642 140.867 16.5113 141.866 16.5113Z" fill="#FFAB07"/>
<path d="M151.166 18.6959V5.86788H154.341V18.6959H151.166ZM150.988 3.45468V0.355628H154.519V3.45468H150.988Z" fill="#FFAB07"/>
<path d="M157.789 18.6959V0H160.965V18.6959H157.789Z" fill="#FFAB07"/>
<path d="M164.413 18.6959V5.86788H167.588V18.6959H164.413ZM164.235 3.45468V0.355628H167.766V3.45468H164.235Z" fill="#FFAB07"/>
<path d="M176.523 18.9499C174.999 18.9499 173.847 18.552 173.068 17.756C172.289 16.9601 171.9 15.7662 171.9 14.1744V8.25567H169.436V5.86788H171.9V2.59101L175.075 1.77815V5.86788H178.504V8.25567H175.075V13.9711C175.075 14.8517 175.245 15.4699 175.583 15.8255C175.922 16.1811 176.388 16.3589 176.98 16.3589C177.302 16.3589 177.573 16.3335 177.793 16.2827C178.03 16.2319 178.259 16.1642 178.479 16.0795V18.5943C178.191 18.7129 177.869 18.7975 177.514 18.8483C177.175 18.9161 176.845 18.9499 176.523 18.9499Z" fill="#FFAB07"/>
<path d="M180.606 24.4622L179.869 21.9474C180.665 21.778 181.334 21.5833 181.876 21.3631C182.418 21.143 182.866 20.8551 183.222 20.4995C183.578 20.1438 183.874 19.6866 184.111 19.1278L184.746 17.629L184.67 18.8737L179.082 5.86788H182.46L186.474 15.8763H185.737L189.776 5.86788H192.977L187.134 19.4072C186.745 20.3217 186.321 21.0752 185.864 21.668C185.407 22.2776 184.916 22.7602 184.391 23.1159C183.866 23.4884 183.29 23.7763 182.663 23.9795C182.037 24.1828 181.351 24.3436 180.606 24.4622Z" fill="#FFAB07"/>
<path d="M206.576 18.9499C205.459 18.9499 204.476 18.6875 203.63 18.1625C202.783 17.6206 202.123 16.85 201.648 15.8509C201.174 14.8517 200.937 13.6578 200.937 12.2692C200.937 10.8806 201.174 9.69512 201.648 8.71291C202.123 7.71376 202.783 6.9517 203.63 6.42672C204.476 5.88481 205.459 5.61386 206.576 5.61386C207.66 5.61386 208.608 5.88481 209.421 6.42672C210.251 6.9517 210.802 7.66296 211.072 8.5605H210.793L211.072 5.86788H214.121C214.07 6.39285 214.019 6.9263 213.968 7.46821C213.934 8.01012 213.918 8.54356 213.918 9.06854V18.6959H210.768L210.742 16.0541H211.047C210.776 16.9347 210.226 17.6375 209.396 18.1625C208.566 18.6875 207.626 18.9499 206.576 18.9499ZM207.465 16.5113C208.465 16.5113 209.269 16.1642 209.879 15.4699C210.488 14.7586 210.793 13.6917 210.793 12.2692C210.793 10.8467 210.488 9.78826 209.879 9.09394C209.269 8.39962 208.465 8.05245 207.465 8.05245C206.466 8.05245 205.662 8.39962 205.052 9.09394C204.443 9.78826 204.138 10.8467 204.138 12.2692C204.138 13.6917 204.434 14.7586 205.027 15.4699C205.636 16.1642 206.449 16.5113 207.465 16.5113Z" fill="#FFAB07"/>
<path d="M217.375 18.6959V9.06854C217.375 8.54356 217.358 8.01012 217.324 7.46821C217.29 6.9263 217.24 6.39285 217.172 5.86788H220.246L220.5 8.40808H220.195C220.601 7.51054 221.202 6.82469 221.998 6.35052C222.794 5.85941 223.717 5.61386 224.767 5.61386C226.274 5.61386 227.409 6.03722 228.171 6.88396C228.933 7.73069 229.314 9.0516 229.314 10.8467V18.6959H226.139V10.9991C226.139 9.96608 225.936 9.22942 225.529 8.78911C225.14 8.33188 224.547 8.10326 223.751 8.10326C222.769 8.10326 221.99 8.40808 221.414 9.01773C220.838 9.62738 220.55 10.4402 220.55 11.4563V18.6959H217.375Z" fill="#FFAB07"/>
<path d="M237.66 18.9499C236.542 18.9499 235.551 18.6875 234.688 18.1625C233.841 17.6206 233.18 16.85 232.706 15.8509C232.232 14.8517 231.995 13.6578 231.995 12.2692C231.995 10.8806 232.232 9.69512 232.706 8.71291C233.18 7.71376 233.841 6.9517 234.688 6.42672C235.551 5.88481 236.542 5.61386 237.66 5.61386C238.727 5.61386 239.666 5.87634 240.479 6.40132C241.309 6.90936 241.86 7.60368 242.13 8.48429H241.8V0H244.976V18.6959H241.851V15.9779H242.156C241.885 16.8924 241.335 17.6206 240.505 18.1625C239.692 18.6875 238.744 18.9499 237.66 18.9499ZM238.549 16.5113C239.548 16.5113 240.352 16.1642 240.962 15.4699C241.572 14.7586 241.876 13.6917 241.876 12.2692C241.876 10.8467 241.572 9.78826 240.962 9.09394C240.352 8.39962 239.548 8.05245 238.549 8.05245C237.55 8.05245 236.737 8.39962 236.11 9.09394C235.501 9.78826 235.196 10.8467 235.196 12.2692C235.196 13.6917 235.501 14.7586 236.11 15.4699C236.737 16.1642 237.55 16.5113 238.549 16.5113Z" fill="#FFAB07"/>
<path d="M260.891 18.9499C259.367 18.9499 258.215 18.552 257.436 17.756C256.657 16.9601 256.268 15.7662 256.268 14.1744V8.25567H253.804V5.86788H256.268V2.59101L259.443 1.77815V5.86788H262.872V8.25567H259.443V13.9711C259.443 14.8517 259.612 15.4699 259.951 15.8255C260.289 16.1811 260.755 16.3589 261.348 16.3589C261.67 16.3589 261.941 16.3335 262.161 16.2827C262.398 16.2319 262.626 16.1642 262.847 16.0795V18.5943C262.559 18.7129 262.237 18.7975 261.881 18.8483C261.543 18.9161 261.212 18.9499 260.891 18.9499Z" fill="#FFAB07"/>
<path d="M265.003 18.6959V9.14474C265.003 8.60283 264.987 8.05245 264.953 7.49361C264.936 6.93476 264.893 6.39285 264.826 5.86788H267.899L268.255 9.37336H267.747C267.916 8.52663 268.196 7.82384 268.585 7.26499C268.992 6.70615 269.483 6.29125 270.058 6.02029C270.634 5.74933 271.261 5.61386 271.938 5.61386C272.243 5.61386 272.489 5.63079 272.675 5.66466C272.861 5.6816 273.047 5.72393 273.234 5.79167L273.208 8.5859C272.887 8.45042 272.607 8.36575 272.37 8.33188C272.15 8.29801 271.87 8.28107 271.532 8.28107C270.804 8.28107 270.185 8.43349 269.677 8.73831C269.186 9.04313 268.814 9.4665 268.56 10.0084C268.323 10.5503 268.204 11.1684 268.204 11.8628V18.6959H265.003Z" fill="#FFAB07"/>
<path d="M279.624 18.9499C278.049 18.9499 276.872 18.5181 276.093 17.6544C275.314 16.7908 274.925 15.4699 274.925 13.6917V5.86788H278.1V13.6663C278.1 14.6147 278.295 15.3174 278.684 15.7747C279.074 16.215 279.667 16.4351 280.463 16.4351C281.36 16.4351 282.088 16.1303 282.647 15.5207C283.223 14.911 283.511 14.1066 283.511 13.1075V5.86788H286.686V18.6959H283.587V16.0795H283.943C283.57 16.994 283.003 17.7052 282.241 18.2133C281.496 18.7044 280.623 18.9499 279.624 18.9499Z" fill="#FFAB07"/>
<path d="M294.706 18.9499C293.605 18.9499 292.589 18.8229 291.657 18.5689C290.743 18.298 289.972 17.9254 289.346 17.4512L290.235 15.3174C290.878 15.7577 291.59 16.0964 292.369 16.3335C293.148 16.5706 293.935 16.6892 294.731 16.6892C295.578 16.6892 296.204 16.5452 296.611 16.2573C297.034 15.9694 297.246 15.5799 297.246 15.0888C297.246 14.6993 297.11 14.3945 296.839 14.1744C296.585 13.9373 296.17 13.7595 295.595 13.6409L293.054 13.1583C291.971 12.9212 291.141 12.5148 290.565 11.939C290.006 11.3632 289.727 10.6096 289.727 9.67819C289.727 8.88226 289.938 8.17946 290.362 7.56982C290.802 6.96017 291.42 6.48599 292.216 6.1473C293.029 5.79167 293.977 5.61386 295.061 5.61386C296.01 5.61386 296.899 5.74087 297.728 5.99489C298.575 6.24891 299.286 6.62994 299.862 7.13798L298.948 9.19555C298.423 8.77218 297.822 8.44195 297.144 8.20487C296.467 7.96778 295.806 7.84924 295.163 7.84924C294.282 7.84924 293.639 8.01012 293.232 8.33188C292.826 8.6367 292.623 9.03467 292.623 9.52577C292.623 9.89834 292.741 10.2116 292.978 10.4657C293.232 10.7027 293.622 10.8806 294.147 10.9991L296.687 11.4817C297.822 11.7019 298.677 12.0914 299.253 12.6502C299.845 13.1921 300.142 13.9373 300.142 14.8856C300.142 15.7323 299.913 16.4605 299.456 17.0702C298.999 17.6798 298.363 18.1455 297.551 18.4673C296.738 18.7891 295.789 18.9499 294.706 18.9499Z" fill="#FFAB07"/>
<path d="M308.222 18.9499C306.698 18.9499 305.546 18.552 304.767 17.756C303.988 16.9601 303.599 15.7662 303.599 14.1744V8.25567H301.135V5.86788H303.599V2.59101L306.774 1.77815V5.86788H310.203V8.25567H306.774V13.9711C306.774 14.8517 306.943 15.4699 307.282 15.8255C307.621 16.1811 308.086 16.3589 308.679 16.3589C309.001 16.3589 309.272 16.3335 309.492 16.2827C309.729 16.2319 309.958 16.1642 310.178 16.0795V18.5943C309.89 18.7129 309.568 18.7975 309.213 18.8483C308.874 18.9161 308.544 18.9499 308.222 18.9499Z" fill="#FFAB07"/>
</svg>
