<svg width="360" height="52" viewBox="0 0 360 52" fill="none" xmlns="http://www.w3.org/2000/svg">
<path d="M8.91612 19.0515C7.05331 19.0515 5.45298 18.679 4.11513 17.9339C2.79423 17.1718 1.77814 16.1049 1.06689 14.7332C0.355629 13.3445 0 11.7103 0 9.8306C0 7.95084 0.355629 6.32511 1.06689 4.9534C1.77814 3.58169 2.79423 2.52327 4.11513 1.77814C5.45298 1.01608 7.05331 0.635051 8.91612 0.635051C10.1693 0.635051 11.2955 0.812866 12.2946 1.1685C13.3107 1.52412 14.1828 2.0491 14.911 2.74342L13.8441 5.33443C13.0482 4.69091 12.2777 4.23368 11.5325 3.96272C10.8043 3.67483 9.96608 3.53089 9.01773 3.53089C7.20572 3.53089 5.81707 4.08126 4.85179 5.18202C3.90345 6.26584 3.42928 7.81537 3.42928 9.8306C3.42928 11.8458 3.90345 13.4038 4.85179 14.5046C5.81707 15.6053 7.20572 16.1557 9.01773 16.1557C9.96608 16.1557 10.8043 16.0202 11.5325 15.7493C12.2777 15.4614 13.0482 14.9872 13.8441 14.3268L14.911 16.9178C14.1828 17.5952 13.3107 18.1201 12.2946 18.4927C11.2955 18.8653 10.1693 19.0515 8.91612 19.0515Z" fill="#127F7A"/>
<path d="M22.0204 19.0515C20.4455 19.0515 19.2685 18.6197 18.4895 17.756C17.7105 16.8924 17.321 15.5715 17.321 13.7933V5.96948H20.4963V13.7679C20.4963 14.7163 20.691 15.4191 21.0805 15.8763C21.47 16.3166 22.0627 16.5367 22.8587 16.5367C23.7562 16.5367 24.4844 16.2319 25.0433 15.6223C25.619 15.0126 25.9069 14.2082 25.9069 13.2091V5.96948H29.0822V18.7975H25.9831V16.1811H26.3388C25.9662 17.0956 25.3989 17.8068 24.6368 18.3149C23.8917 18.806 23.0196 19.0515 22.0204 19.0515Z" fill="#127F7A"/>
<path d="M37.1017 19.0515C36.0009 19.0515 34.9849 18.9245 34.0534 18.6705C33.139 18.3996 32.3684 18.027 31.7419 17.5528L32.6309 15.4191C33.2745 15.8594 33.9857 16.198 34.7647 16.4351C35.5437 16.6722 36.3312 16.7908 37.1271 16.7908C37.9738 16.7908 38.6004 16.6468 39.0068 16.3589C39.4302 16.071 39.6419 15.6815 39.6419 15.1904C39.6419 14.8009 39.5064 14.4961 39.2355 14.276C38.9814 14.0389 38.5665 13.8611 37.9908 13.7425L35.4506 13.2599C34.3667 13.0228 33.5369 12.6164 32.9612 12.0406C32.4023 11.4648 32.1229 10.7112 32.1229 9.77979C32.1229 8.98386 32.3346 8.28107 32.7579 7.67142C33.1982 7.06177 33.8164 6.5876 34.6123 6.24891C35.4252 5.89328 36.3735 5.71546 37.4573 5.71546C38.4057 5.71546 39.2947 5.84247 40.1245 6.0965C40.9713 6.35052 41.6825 6.73155 42.2583 7.23959L41.3438 9.29716C40.8189 8.87379 40.2177 8.54356 39.5403 8.30647C38.8629 8.06939 38.2024 7.95085 37.5589 7.95085C36.6783 7.95085 36.0348 8.11173 35.6284 8.43349C35.2219 8.73831 35.0187 9.13627 35.0187 9.62738C35.0187 9.99994 35.1373 10.3132 35.3744 10.5673C35.6284 10.8043 36.0179 10.9822 36.5429 11.1007L39.0831 11.5833C40.2177 11.8035 41.0729 12.193 41.6487 12.7518C42.2414 13.2937 42.5377 14.0389 42.5377 14.9872C42.5377 15.834 42.3091 16.5621 41.8519 17.1718C41.3946 17.7814 40.7596 18.2471 39.9467 18.5689C39.1339 18.8907 38.1855 19.0515 37.1017 19.0515Z" fill="#127F7A"/>
<path d="M50.618 19.0515C49.0938 19.0515 47.9423 18.6536 47.1633 17.8576C46.3843 17.0617 45.9948 15.8678 45.9948 14.276V8.35728H43.5308V5.96948H45.9948V2.69262L49.1701 1.87975V5.96948H52.5993V8.35728H49.1701V14.0727C49.1701 14.9533 49.3394 15.5715 49.6781 15.9271C50.0168 16.2827 50.4825 16.4605 51.0752 16.4605C51.397 16.4605 51.6679 16.4351 51.8881 16.3843C52.1252 16.3335 52.3538 16.2658 52.5739 16.1811V18.6959C52.286 18.8145 51.9643 18.8991 51.6087 18.9499C51.27 19.0177 50.9397 19.0515 50.618 19.0515Z" fill="#127F7A"/>
<path d="M60.4238 19.0515C59.1029 19.0515 57.9598 18.7806 56.9945 18.2387C56.0292 17.6968 55.2756 16.9262 54.7337 15.9271C54.2087 14.9279 53.9462 13.7425 53.9462 12.3708C53.9462 10.9991 54.2087 9.82213 54.7337 8.83992C55.2756 7.84077 56.0292 7.07024 56.9945 6.52833C57.9598 5.98642 59.1029 5.71546 60.4238 5.71546C61.7447 5.71546 62.8878 5.98642 63.853 6.52833C64.8353 7.07024 65.5889 7.84077 66.1138 8.83992C66.6557 9.82213 66.9267 10.9991 66.9267 12.3708C66.9267 13.7425 66.6557 14.9279 66.1138 15.9271C65.5889 16.9262 64.8353 17.6968 63.853 18.2387C62.8878 18.7806 61.7447 19.0515 60.4238 19.0515ZM60.4238 16.6129C61.4229 16.6129 62.2188 16.2658 62.8116 15.5715C63.4043 14.8602 63.7006 13.7933 63.7006 12.3708C63.7006 10.9483 63.4043 9.88987 62.8116 9.19555C62.2188 8.50122 61.4229 8.15406 60.4238 8.15406C59.4246 8.15406 58.6287 8.50122 58.036 9.19555C57.4433 9.88987 57.1469 10.9483 57.1469 12.3708C57.1469 13.7933 57.4433 14.8602 58.036 15.5715C58.6287 16.2658 59.4246 16.6129 60.4238 16.6129Z" fill="#127F7A"/>
<path d="M69.665 18.7975V9.17015C69.665 8.64517 69.648 8.11172 69.6142 7.56981C69.5803 7.0279 69.5295 6.49446 69.4617 5.96948H72.5354L72.7894 8.50969H72.4846C72.8402 7.62908 73.3821 6.94323 74.1103 6.45212C74.8554 5.96102 75.7361 5.71546 76.7521 5.71546C77.7682 5.71546 78.6065 5.96102 79.2669 6.45212C79.9443 6.92629 80.4185 7.67142 80.6895 8.6875H80.283C80.6387 7.77303 81.2229 7.05331 82.0358 6.52833C82.8486 5.98642 83.78 5.71546 84.83 5.71546C86.2694 5.71546 87.3448 6.13883 88.0561 6.98557C88.7673 7.8323 89.1229 9.15321 89.1229 10.9483V18.7975H85.9477V11.0753C85.9477 10.0592 85.7783 9.33102 85.4396 8.89072C85.101 8.43349 84.559 8.20487 83.8139 8.20487C82.9333 8.20487 82.239 8.51816 81.7309 9.14474C81.2229 9.75439 80.9689 10.5842 80.9689 11.6341V18.7975H77.7936V11.0753C77.7936 10.0592 77.6243 9.33102 77.2856 8.89072C76.9469 8.43349 76.405 8.20487 75.6599 8.20487C74.7792 8.20487 74.0849 8.51816 73.5769 9.14474C73.0858 9.75439 72.8402 10.5842 72.8402 11.6341V18.7975H69.665Z" fill="#127F7A"/>
<path d="M92.5119 18.7975V5.96948H95.6872V18.7975H92.5119ZM92.3341 3.55629V0.457236H95.865V3.55629H92.3341Z" fill="#127F7A"/>
<path d="M98.6273 18.7975V16.7146L106.654 7.59522V8.35728H98.6273V5.96948H109.525V8.05245L101.422 17.248L101.396 16.4097H109.804V18.7975H98.6273Z" fill="#127F7A"/>
<path d="M117.335 19.0515C116.218 19.0515 115.236 18.7891 114.389 18.2641C113.542 17.7222 112.882 16.9516 112.407 15.9525C111.933 14.9533 111.696 13.7595 111.696 12.3708C111.696 10.9822 111.933 9.79673 112.407 8.81452C112.882 7.81537 113.542 7.05331 114.389 6.52833C115.236 5.98642 116.218 5.71546 117.335 5.71546C118.419 5.71546 119.368 5.98642 120.181 6.52833C121.01 7.05331 121.561 7.76456 121.832 8.6621H121.552L121.832 5.96948H124.88C124.829 6.49446 124.778 7.0279 124.728 7.56981C124.694 8.11172 124.677 8.64517 124.677 9.17015V18.7975H121.527L121.501 16.1557H121.806C121.535 17.0363 120.985 17.7391 120.155 18.2641C119.325 18.7891 118.385 19.0515 117.335 19.0515ZM118.225 16.6129C119.224 16.6129 120.028 16.2658 120.638 15.5715C121.247 14.8602 121.552 13.7933 121.552 12.3708C121.552 10.9483 121.247 9.88987 120.638 9.19555C120.028 8.50122 119.224 8.15406 118.225 8.15406C117.225 8.15406 116.421 8.50122 115.811 9.19555C115.202 9.88987 114.897 10.9483 114.897 12.3708C114.897 13.7933 115.193 14.8602 115.786 15.5715C116.396 16.2658 117.208 16.6129 118.225 16.6129Z" fill="#127F7A"/>
<path d="M135.476 19.0515C134.392 19.0515 133.443 18.7891 132.631 18.2641C131.818 17.7222 131.276 16.994 131.005 16.0795H131.284V18.7975H128.134V0.101607H131.31V8.5859H131.005C131.293 7.70529 131.843 7.01097 132.656 6.50293C133.469 5.97795 134.409 5.71546 135.476 5.71546C136.61 5.71546 137.601 5.98642 138.448 6.52833C139.294 7.07024 139.955 7.84077 140.429 8.83992C140.903 9.82213 141.14 11.0076 141.14 12.3962C141.14 13.7849 140.903 14.9787 140.429 15.9779C139.955 16.9601 139.286 17.7222 138.422 18.2641C137.575 18.7891 136.593 19.0515 135.476 19.0515ZM134.586 16.6129C135.586 16.6129 136.39 16.2658 137 15.5715C137.626 14.8771 137.94 13.8187 137.94 12.3962C137.94 10.9737 137.626 9.91527 137 9.22095C136.39 8.50969 135.586 8.15406 134.586 8.15406C133.587 8.15406 132.783 8.50122 132.173 9.19555C131.564 9.88987 131.259 10.9483 131.259 12.3708C131.259 13.7933 131.564 14.8602 132.173 15.5715C132.783 16.2658 133.587 16.6129 134.586 16.6129Z" fill="#127F7A"/>
<path d="M143.887 18.7975V0.101607H147.062V18.7975H143.887Z" fill="#127F7A"/>
<path d="M156.708 19.0515C154.557 19.0515 152.872 18.4588 151.653 17.2734C150.434 16.088 149.824 14.4622 149.824 12.3962C149.824 11.0584 150.087 9.88987 150.612 8.89072C151.137 7.89157 151.865 7.11258 152.796 6.55373C153.745 5.99489 154.845 5.71546 156.098 5.71546C157.335 5.71546 158.368 5.97795 159.197 6.50293C160.027 7.0279 160.654 7.76456 161.077 8.71291C161.518 9.66125 161.738 10.7705 161.738 12.0406V12.8788H152.39V11.2023H159.477L159.045 11.5579C159.045 10.3725 158.791 9.4665 158.283 8.83992C157.792 8.21333 157.072 7.90004 156.124 7.90004C155.074 7.90004 154.261 8.27261 153.685 9.01773C153.126 9.76286 152.847 10.8043 152.847 12.1422V12.4724C152.847 13.8611 153.186 14.9025 153.863 15.5969C154.557 16.2743 155.531 16.6129 156.784 16.6129C157.512 16.6129 158.19 16.5198 158.816 16.3335C159.46 16.1303 160.07 15.8085 160.645 15.3682L161.585 17.502C160.976 17.9931 160.247 18.3742 159.401 18.6451C158.554 18.9161 157.656 19.0515 156.708 19.0515Z" fill="#127F7A"/>
<path d="M176.351 19.0515C175.233 19.0515 174.251 18.7891 173.404 18.2641C172.557 17.7222 171.897 16.9516 171.423 15.9525C170.948 14.9533 170.711 13.7595 170.711 12.3708C170.711 10.9822 170.948 9.79673 171.423 8.81452C171.897 7.81537 172.557 7.05331 173.404 6.52833C174.251 5.98642 175.233 5.71546 176.351 5.71546C177.434 5.71546 178.383 5.98642 179.196 6.52833C180.025 7.05331 180.576 7.76456 180.847 8.6621H180.567L180.847 5.96948H183.895C183.844 6.49446 183.793 7.0279 183.743 7.56981C183.709 8.11172 183.692 8.64517 183.692 9.17015V18.7975H180.542L180.517 16.1557H180.821C180.55 17.0363 180 17.7391 179.17 18.2641C178.34 18.7891 177.401 19.0515 176.351 19.0515ZM177.24 16.6129C178.239 16.6129 179.043 16.2658 179.653 15.5715C180.263 14.8602 180.567 13.7933 180.567 12.3708C180.567 10.9483 180.263 9.88987 179.653 9.19555C179.043 8.50122 178.239 8.15406 177.24 8.15406C176.241 8.15406 175.436 8.50122 174.827 9.19555C174.217 9.88987 173.912 10.9483 173.912 12.3708C173.912 13.7933 174.208 14.8602 174.801 15.5715C175.411 16.2658 176.224 16.6129 177.24 16.6129Z" fill="#127F7A"/>
<path d="M187.149 18.7975V9.17015C187.149 8.64517 187.133 8.11172 187.099 7.56981C187.065 7.0279 187.014 6.49446 186.946 5.96948H190.02L190.274 8.50969H189.969C190.376 7.61215 190.977 6.92629 191.773 6.45212C192.569 5.96102 193.492 5.71546 194.541 5.71546C196.049 5.71546 197.183 6.13883 197.945 6.98557C198.707 7.8323 199.088 9.15321 199.088 10.9483V18.7975H195.913V11.1007C195.913 10.0677 195.71 9.33102 195.304 8.89072C194.914 8.43349 194.321 8.20487 193.525 8.20487C192.543 8.20487 191.764 8.50969 191.188 9.11934C190.613 9.72899 190.325 10.5419 190.325 11.5579V18.7975H187.149Z" fill="#127F7A"/>
<path d="M207.434 19.0515C206.316 19.0515 205.326 18.7891 204.462 18.2641C203.615 17.7222 202.955 16.9516 202.481 15.9525C202.006 14.9533 201.769 13.7595 201.769 12.3708C201.769 10.9822 202.006 9.79673 202.481 8.81452C202.955 7.81537 203.615 7.05331 204.462 6.52833C205.326 5.98642 206.316 5.71546 207.434 5.71546C208.501 5.71546 209.441 5.97795 210.254 6.50293C211.083 7.01097 211.634 7.70529 211.905 8.5859H211.575V0.101607H214.75V18.7975H211.625V16.0795H211.93C211.659 16.994 211.109 17.7222 210.279 18.2641C209.466 18.7891 208.518 19.0515 207.434 19.0515ZM208.323 16.6129C209.322 16.6129 210.127 16.2658 210.736 15.5715C211.346 14.8602 211.651 13.7933 211.651 12.3708C211.651 10.9483 211.346 9.88987 210.736 9.19555C210.127 8.50122 209.322 8.15406 208.323 8.15406C207.324 8.15406 206.511 8.50122 205.885 9.19555C205.275 9.88987 204.97 10.9483 204.97 12.3708C204.97 13.7933 205.275 14.8602 205.885 15.5715C206.511 16.2658 207.324 16.6129 208.323 16.6129Z" fill="#127F7A"/>
<path d="M225.178 18.7975V9.17015C225.178 8.64517 225.161 8.11172 225.127 7.56981C225.093 7.0279 225.043 6.49446 224.975 5.96948H228.049L228.303 8.50969H227.998C228.404 7.61215 229.005 6.92629 229.801 6.45212C230.597 5.96102 231.52 5.71546 232.57 5.71546C234.077 5.71546 235.212 6.13883 235.974 6.98557C236.736 7.8323 237.117 9.15321 237.117 10.9483V18.7975H233.942V11.1007C233.942 10.0677 233.739 9.33102 233.332 8.89072C232.943 8.43349 232.35 8.20487 231.554 8.20487C230.572 8.20487 229.793 8.50969 229.217 9.11934C228.641 9.72899 228.353 10.5419 228.353 11.5579V18.7975H225.178Z" fill="#127F7A"/>
<path d="M246.276 19.0515C244.955 19.0515 243.812 18.7806 242.846 18.2387C241.881 17.6968 241.127 16.9262 240.586 15.9271C240.061 14.9279 239.798 13.7425 239.798 12.3708C239.798 10.9991 240.061 9.82213 240.586 8.83992C241.127 7.84077 241.881 7.07024 242.846 6.52833C243.812 5.98642 244.955 5.71546 246.276 5.71546C247.596 5.71546 248.74 5.98642 249.705 6.52833C250.687 7.07024 251.441 7.84077 251.966 8.83992C252.508 9.82213 252.779 10.9991 252.779 12.3708C252.779 13.7425 252.508 14.9279 251.966 15.9271C251.441 16.9262 250.687 17.6968 249.705 18.2387C248.74 18.7806 247.596 19.0515 246.276 19.0515ZM246.276 16.6129C247.275 16.6129 248.071 16.2658 248.663 15.5715C249.256 14.8602 249.552 13.7933 249.552 12.3708C249.552 10.9483 249.256 9.88987 248.663 9.19555C248.071 8.50122 247.275 8.15406 246.276 8.15406C245.276 8.15406 244.48 8.50122 243.888 9.19555C243.295 9.88987 242.999 10.9483 242.999 12.3708C242.999 13.7933 243.295 14.8602 243.888 15.5715C244.48 16.2658 245.276 16.6129 246.276 16.6129Z" fill="#127F7A"/>
<path d="M260.88 19.0515C259.355 19.0515 258.204 18.6536 257.425 17.8576C256.646 17.0617 256.256 15.8678 256.256 14.276V8.35728H253.792V5.96948H256.256V2.69262L259.432 1.87975V5.96948H262.861V8.35728H259.432V14.0727C259.432 14.9533 259.601 15.5715 259.94 15.9271C260.278 16.2827 260.744 16.4605 261.337 16.4605C261.659 16.4605 261.93 16.4351 262.15 16.3843C262.387 16.3335 262.615 16.2658 262.836 16.1811V18.6959C262.548 18.8145 262.226 18.8991 261.87 18.9499C261.532 19.0177 261.201 19.0515 260.88 19.0515Z" fill="#127F7A"/>
<path d="M265.018 18.7975V5.96948H268.193V18.7975H265.018ZM264.84 3.55629V0.457236H268.371V3.55629H264.84Z" fill="#127F7A"/>
<path d="M272.505 18.7975V8.35728H270.041V5.96948H273.394L272.505 6.78235V4.82639C272.505 3.23453 272.903 2.03216 273.699 1.2193C274.512 0.406433 275.688 0 277.23 0C277.602 0 277.992 0.0254018 278.398 0.0762053C278.821 0.12701 279.186 0.220151 279.49 0.355629V2.84503C279.27 2.76036 279.008 2.69262 278.703 2.64181C278.398 2.59101 278.102 2.56561 277.814 2.56561C277.153 2.56561 276.628 2.76036 276.239 3.14985C275.849 3.52242 275.655 4.13207 275.655 4.9788V6.52833L275.197 5.96948H284.113V18.7975H280.938V8.35728H275.68V18.7975H272.505ZM280.76 3.55629V0.457236H284.291V3.55629H280.76Z" fill="#127F7A"/>
<path d="M293.46 19.0515C292.139 19.0515 290.979 18.7806 289.98 18.2387C288.998 17.6968 288.236 16.9262 287.694 15.9271C287.152 14.911 286.881 13.7086 286.881 12.32C286.881 10.9314 287.152 9.74592 287.694 8.76371C288.253 7.7815 289.023 7.0279 290.006 6.50293C290.988 5.97795 292.139 5.71546 293.46 5.71546C294.307 5.71546 295.128 5.85094 295.924 6.1219C296.737 6.37592 297.398 6.74848 297.906 7.23959L296.94 9.44957C296.483 9.0262 295.967 8.71291 295.391 8.50969C294.832 8.28954 294.282 8.17946 293.74 8.17946C292.605 8.17946 291.716 8.53509 291.072 9.24635C290.446 9.95761 290.133 10.9906 290.133 12.3454C290.133 13.7002 290.446 14.7417 291.072 15.4699C291.716 16.198 292.605 16.5621 293.74 16.5621C294.265 16.5621 294.807 16.4605 295.365 16.2573C295.941 16.0541 296.466 15.7408 296.94 15.3174L297.906 17.502C297.381 17.9931 296.712 18.3742 295.899 18.6451C295.103 18.9161 294.29 19.0515 293.46 19.0515Z" fill="#127F7A"/>
<path d="M305.246 19.0515C304.129 19.0515 303.146 18.7891 302.3 18.2641C301.453 17.7222 300.792 16.9516 300.318 15.9525C299.844 14.9533 299.607 13.7595 299.607 12.3708C299.607 10.9822 299.844 9.79673 300.318 8.81452C300.792 7.81537 301.453 7.05331 302.3 6.52833C303.146 5.98642 304.129 5.71546 305.246 5.71546C306.33 5.71546 307.278 5.98642 308.091 6.52833C308.921 7.05331 309.471 7.76456 309.742 8.6621H309.463L309.742 5.96948H312.791C312.74 6.49446 312.689 7.0279 312.638 7.56981C312.604 8.11172 312.587 8.64517 312.587 9.17015V18.7975H309.438L309.412 16.1557H309.717C309.446 17.0363 308.896 17.7391 308.066 18.2641C307.236 18.7891 306.296 19.0515 305.246 19.0515ZM306.135 16.6129C307.134 16.6129 307.939 16.2658 308.548 15.5715C309.158 14.8602 309.463 13.7933 309.463 12.3708C309.463 10.9483 309.158 9.88987 308.548 9.19555C307.939 8.50122 307.134 8.15406 306.135 8.15406C305.136 8.15406 304.332 8.50122 303.722 9.19555C303.112 9.88987 302.808 10.9483 302.808 12.3708C302.808 13.7933 303.104 14.8602 303.697 15.5715C304.306 16.2658 305.119 16.6129 306.135 16.6129Z" fill="#127F7A"/>
<path d="M321.532 19.0515C320.008 19.0515 318.856 18.6536 318.077 17.8576C317.298 17.0617 316.909 15.8678 316.909 14.276V8.35728H314.445V5.96948H316.909V2.69262L320.084 1.87975V5.96948H323.513V8.35728H320.084V14.0727C320.084 14.9533 320.253 15.5715 320.592 15.9271C320.931 16.2827 321.396 16.4605 321.989 16.4605C322.311 16.4605 322.582 16.4351 322.802 16.3843C323.039 16.3335 323.268 16.2658 323.488 16.1811V18.6959C323.2 18.8145 322.878 18.8991 322.523 18.9499C322.184 19.0177 321.854 19.0515 321.532 19.0515Z" fill="#127F7A"/>
<path d="M325.67 18.7975V5.96948H328.845V18.7975H325.67ZM325.492 3.55629V0.457236H329.023V3.55629H325.492Z" fill="#127F7A"/>
<path d="M338.085 19.0515C336.764 19.0515 335.621 18.7806 334.656 18.2387C333.691 17.6968 332.937 16.9262 332.395 15.9271C331.87 14.9279 331.608 13.7425 331.608 12.3708C331.608 10.9991 331.87 9.82213 332.395 8.83992C332.937 7.84077 333.691 7.07024 334.656 6.52833C335.621 5.98642 336.764 5.71546 338.085 5.71546C339.406 5.71546 340.549 5.98642 341.514 6.52833C342.497 7.07024 343.25 7.84077 343.775 8.83992C344.317 9.82213 344.588 10.9991 344.588 12.3708C344.588 13.7425 344.317 14.9279 343.775 15.9271C343.25 16.9262 342.497 17.6968 341.514 18.2387C340.549 18.7806 339.406 19.0515 338.085 19.0515ZM338.085 16.6129C339.084 16.6129 339.88 16.2658 340.473 15.5715C341.066 14.8602 341.362 13.7933 341.362 12.3708C341.362 10.9483 341.066 9.88987 340.473 9.19555C339.88 8.50122 339.084 8.15406 338.085 8.15406C337.086 8.15406 336.29 8.50122 335.697 9.19555C335.105 9.88987 334.808 10.9483 334.808 12.3708C334.808 13.7933 335.105 14.8602 335.697 15.5715C336.29 16.2658 337.086 16.6129 338.085 16.6129Z" fill="#127F7A"/>
<path d="M347.326 18.7975V9.17015C347.326 8.64517 347.309 8.11172 347.276 7.56981C347.242 7.0279 347.191 6.49446 347.123 5.96948H350.197L350.451 8.50969H350.146C350.552 7.61215 351.154 6.92629 351.95 6.45212C352.745 5.96102 353.668 5.71546 354.718 5.71546C356.226 5.71546 357.36 6.13883 358.122 6.98557C358.884 7.8323 359.265 9.15321 359.265 10.9483V18.7975H356.09V11.1007C356.09 10.0677 355.887 9.33102 355.48 8.89072C355.091 8.43349 354.498 8.20487 353.702 8.20487C352.72 8.20487 351.941 8.50969 351.365 9.11934C350.789 9.72899 350.502 10.5419 350.502 11.5579V18.7975H347.326Z" fill="#127F7A"/>
<path d="M0.330227 50.7975V37.9695H3.50548V50.7975H0.330227ZM0.152412 35.5563V32.4572H3.6833V35.5563H0.152412Z" fill="#127F7A"/>
<path d="M6.95362 50.7975V41.1701C6.95362 40.6452 6.93668 40.1117 6.90281 39.5698C6.86894 39.0279 6.81814 38.4945 6.7504 37.9695H9.82405L10.0781 40.5097H9.77324C10.1797 39.6122 10.7809 38.9263 11.5768 38.4521C12.3727 37.961 13.2957 37.7155 14.3456 37.7155C15.8528 37.7155 16.9874 38.1388 17.7495 38.9856C18.5116 39.8323 18.8926 41.1532 18.8926 42.9483V50.7975H15.7173V43.1007C15.7173 42.0677 15.5141 41.331 15.1077 40.8907C14.7182 40.4335 14.1255 40.2049 13.3295 40.2049C12.3473 40.2049 11.5683 40.5097 10.9925 41.1193C10.4168 41.729 10.1289 42.5419 10.1289 43.5579V50.7975H6.95362Z" fill="#127F7A"/>
<path d="M27.7462 51.0515C26.2221 51.0515 25.0705 50.6536 24.2915 49.8577C23.5125 49.0617 23.123 47.8678 23.123 46.276V40.3573H20.659V37.9695H23.123V34.6926L26.2983 33.8798V37.9695H29.7276V40.3573H26.2983V46.0727C26.2983 46.9533 26.4676 47.5715 26.8063 47.9271C27.145 48.2827 27.6107 48.4605 28.2034 48.4605C28.5252 48.4605 28.7961 48.4351 29.0163 48.3843C29.2534 48.3335 29.482 48.2658 29.7022 48.1811V50.6959C29.4143 50.8145 29.0925 50.8991 28.7369 50.9499C28.3982 51.0177 28.068 51.0515 27.7462 51.0515Z" fill="#127F7A"/>
<path d="M37.9584 51.0515C35.8077 51.0515 34.1227 50.4588 32.9034 49.2734C31.6841 48.088 31.0745 46.4622 31.0745 44.3962C31.0745 43.0584 31.3369 41.8899 31.8619 40.8907C32.3869 39.8916 33.1151 39.1126 34.0465 38.5537C34.9948 37.9949 36.0956 37.7155 37.3488 37.7155C38.585 37.7155 39.618 37.978 40.4478 38.5029C41.2776 39.0279 41.9042 39.7646 42.3276 40.7129C42.7679 41.6613 42.988 42.7705 42.988 44.0406V44.8788H33.6401V43.2023H40.7272L40.2954 43.5579C40.2954 42.3725 40.0414 41.4665 39.5333 40.8399C39.0422 40.2133 38.3225 39.9 37.3742 39.9C36.3242 39.9 35.5114 40.2726 34.9356 41.0177C34.3767 41.7629 34.0973 42.8043 34.0973 44.1422V44.4724C34.0973 45.8611 34.436 46.9025 35.1134 47.5969C35.8077 48.2743 36.7815 48.6129 38.0346 48.6129C38.7628 48.6129 39.4402 48.5198 40.0668 48.3335C40.7103 48.1303 41.32 47.8086 41.8957 47.3682L42.8356 49.502C42.226 49.9931 41.4978 50.3742 40.651 50.6451C39.8043 50.9161 38.9068 51.0515 37.9584 51.0515Z" fill="#127F7A"/>
<path d="M45.6515 50.7975V41.2464C45.6515 40.7044 45.6345 40.1541 45.6007 39.5952C45.5837 39.0364 45.5414 38.4945 45.4737 37.9695H48.5473L48.9029 41.475H48.3949C48.5642 40.6282 48.8437 39.9254 49.2332 39.3666C49.6396 38.8078 50.1307 38.3929 50.7065 38.1219C51.2823 37.8509 51.9088 37.7155 52.5862 37.7155C52.8911 37.7155 53.1366 37.7324 53.3229 37.7663C53.5092 37.7832 53.6955 37.8255 53.8817 37.8933L53.8563 40.6875C53.5346 40.552 53.2552 40.4674 53.0181 40.4335C52.7979 40.3996 52.5185 40.3827 52.1798 40.3827C51.4516 40.3827 50.8335 40.5351 50.3255 40.8399C49.8343 41.1447 49.4618 41.5681 49.2078 42.11C48.9707 42.6519 48.8521 43.27 48.8521 43.9644V50.7975H45.6515Z" fill="#127F7A"/>
<path d="M57.2322 50.7975V40.3573H54.7682V37.9695H58.1213L57.2322 38.7824V36.8264C57.2322 35.2345 57.6387 34.0322 58.4515 33.2193C59.2813 32.4064 60.4922 32 62.084 32C62.4566 32 62.8461 32.0254 63.2525 32.0762C63.6759 32.127 64.04 32.2202 64.3448 32.3556V34.845C64.1247 34.7604 63.8622 34.6926 63.5573 34.6418C63.2525 34.591 62.9562 34.5656 62.6683 34.5656C62.228 34.5656 61.83 34.6503 61.4744 34.8196C61.1357 34.989 60.8647 35.2515 60.6615 35.6071C60.4752 35.9458 60.3821 36.403 60.3821 36.9788V38.5283L59.9249 37.9695H63.7606V40.3573H60.4075V50.7975H57.2322Z" fill="#127F7A"/>
<path d="M70.5501 51.0515C69.4324 51.0515 68.4502 50.7891 67.6034 50.2641C66.7567 49.7222 66.0962 48.9516 65.6221 47.9525C65.1479 46.9533 64.9108 45.7595 64.9108 44.3708C64.9108 42.9822 65.1479 41.7967 65.6221 40.8145C66.0962 39.8154 66.7567 39.0533 67.6034 38.5283C68.4502 37.9864 69.4324 37.7155 70.5501 37.7155C71.6339 37.7155 72.5822 37.9864 73.3951 38.5283C74.2249 39.0533 74.7753 39.7646 75.0462 40.6621H74.7668L75.0462 37.9695H78.0945C78.0437 38.4945 77.9929 39.0279 77.9421 39.5698C77.9082 40.1117 77.8913 40.6452 77.8913 41.1701V50.7975H74.7414L74.716 48.1557H75.0208C74.7499 49.0363 74.1995 49.7391 73.3697 50.2641C72.5399 50.7891 71.6 51.0515 70.5501 51.0515ZM71.4391 48.6129C72.4383 48.6129 73.2427 48.2658 73.8523 47.5715C74.462 46.8602 74.7668 45.7933 74.7668 44.3708C74.7668 42.9483 74.462 41.8899 73.8523 41.1955C73.2427 40.5012 72.4383 40.1541 71.4391 40.1541C70.44 40.1541 69.6356 40.5012 69.0259 41.1955C68.4163 41.8899 68.1115 42.9483 68.1115 44.3708C68.1115 45.7933 68.4078 46.8602 69.0005 47.5715C69.6102 48.2658 70.4231 48.6129 71.4391 48.6129Z" fill="#127F7A"/>
<path d="M87.2422 51.0515C85.9213 51.0515 84.7613 50.7806 83.7621 50.2387C82.7799 49.6968 82.0178 48.9262 81.4759 47.9271C80.934 46.911 80.6631 45.7086 80.6631 44.32C80.6631 42.9314 80.934 41.7459 81.4759 40.7637C82.0348 39.7815 82.8053 39.0279 83.7875 38.5029C84.7697 37.978 85.9213 37.7155 87.2422 37.7155C88.0889 37.7155 88.9103 37.8509 89.7062 38.1219C90.5191 38.3759 91.1795 38.7485 91.6876 39.2396L90.7223 41.4496C90.265 41.0262 89.7485 40.7129 89.1728 40.5097C88.6139 40.2895 88.0635 40.1795 87.5216 40.1795C86.387 40.1795 85.4979 40.5351 84.8544 41.2464C84.2278 41.9576 83.9145 42.9906 83.9145 44.3454C83.9145 45.7002 84.2278 46.7417 84.8544 47.4699C85.4979 48.198 86.387 48.5621 87.5216 48.5621C88.0466 48.5621 88.5885 48.4605 89.1473 48.2573C89.7231 48.0541 90.2481 47.7408 90.7223 47.3174L91.6876 49.502C91.1626 49.9931 90.4937 50.3742 89.6808 50.6451C88.8849 50.9161 88.072 51.0515 87.2422 51.0515Z" fill="#127F7A"/>
<path d="M100.099 51.0515C97.9485 51.0515 96.2635 50.4588 95.0442 49.2734C93.8249 48.088 93.2152 46.4622 93.2152 44.3962C93.2152 43.0584 93.4777 41.8899 94.0027 40.8907C94.5277 39.8916 95.2559 39.1126 96.1873 38.5537C97.1356 37.9949 98.2364 37.7155 99.4896 37.7155C100.726 37.7155 101.759 37.978 102.589 38.5029C103.418 39.0279 104.045 39.7646 104.468 40.7129C104.909 41.6613 105.129 42.7705 105.129 44.0406V44.8788H95.7809V43.2023H102.868L102.436 43.5579C102.436 42.3725 102.182 41.4665 101.674 40.8399C101.183 40.2133 100.463 39.9 99.515 39.9C98.465 39.9 97.6521 40.2726 97.0764 41.0177C96.5175 41.7629 96.2381 42.8043 96.2381 44.1422V44.4724C96.2381 45.8611 96.5768 46.9025 97.2542 47.5969C97.9485 48.2743 98.9222 48.6129 100.175 48.6129C100.904 48.6129 101.581 48.5198 102.208 48.3335C102.851 48.1303 103.461 47.8086 104.037 47.3682L104.976 49.502C104.367 49.9931 103.639 50.3742 102.792 50.6451C101.945 50.9161 101.048 51.0515 100.099 51.0515Z" fill="#127F7A"/>
</svg>
