<svg width="37" height="37" viewBox="0 0 37 37" fill="none" xmlns="http://www.w3.org/2000/svg">
<path d="M7.77328 23.381C7.77263 24.1496 7.54412 24.9007 7.11666 25.5394C6.68919 26.1781 6.08195 26.6758 5.3717 26.9694C4.66146 27.2631 3.88009 27.3396 3.12637 27.1893C2.37265 27.0389 1.68043 26.6685 1.1372 26.1248C0.593979 25.5811 0.22414 24.8886 0.0744411 24.1347C-0.0752582 23.3809 0.00190299 22.5996 0.29617 21.8896C0.590438 21.1796 1.0886 20.5728 1.72768 20.1458C2.36676 19.7189 3.11808 19.4911 3.88664 19.4911H7.77328V23.381Z" fill="white"/>
<path d="M9.73242 23.3811C9.73242 22.3503 10.1419 21.3618 10.8708 20.6329C11.5997 19.904 12.5883 19.4945 13.6191 19.4945C14.6499 19.4945 15.6384 19.904 16.3673 20.6329C17.0962 21.3618 17.5057 22.3503 17.5057 23.3811V33.1134C17.5057 34.1442 17.0962 35.1328 16.3673 35.8617C15.6384 36.5906 14.6499 37.0001 13.6191 37.0001C12.5883 37.0001 11.5997 36.5906 10.8708 35.8617C10.1419 35.1328 9.73242 34.1442 9.73242 33.1134V23.3811Z" fill="white"/>
<path d="M13.6187 7.77328C12.8501 7.77263 12.099 7.54412 11.4603 7.11666C10.8216 6.68919 10.3239 6.08195 10.0303 5.3717C9.7366 4.66146 9.6601 3.88009 9.81044 3.12637C9.96078 2.37265 10.3312 1.68043 10.8749 1.1372C11.4186 0.593979 12.1111 0.22414 12.865 0.0744411C13.6188 -0.0752582 14.4001 0.00190299 15.1101 0.29617C15.8201 0.590438 16.4269 1.0886 16.8538 1.72768C17.2808 2.36676 17.5086 3.11808 17.5086 3.88664V7.77328H13.6187Z" fill="white"/>
<path d="M13.6189 9.73212C14.6497 9.73212 15.6383 10.1416 16.3672 10.8705C17.0961 11.5994 17.5056 12.588 17.5056 13.6188C17.5056 14.6496 17.0961 15.6381 16.3672 16.367C15.6383 17.0959 14.6497 17.5054 13.6189 17.5054H3.88664C2.85584 17.5054 1.86726 17.0959 1.13837 16.367C0.409484 15.6381 0 14.6496 0 13.6188C0 12.588 0.409484 11.5994 1.13837 10.8705C1.86726 10.1416 2.85584 9.73212 3.88664 9.73212H13.6189Z" fill="white"/>
<path d="M29.2271 13.6189C29.2277 12.8503 29.4562 12.0992 29.8837 11.4605C30.3111 10.8218 30.9184 10.3241 31.6286 10.0305C32.3389 9.73681 33.1202 9.66031 33.874 9.81065C34.6277 9.96099 35.3199 10.3314 35.8631 10.8751C36.4064 11.4188 36.7762 12.1113 36.9259 12.8652C37.0756 13.619 36.9984 14.4003 36.7042 15.1103C36.4099 15.8203 35.9117 16.4271 35.2726 16.8541C34.6336 17.281 33.8823 17.5088 33.1137 17.5088H29.2271V13.6189Z" fill="white"/>
<path d="M27.2679 13.6189C27.2679 14.6497 26.8584 15.6383 26.1295 16.3672C25.4006 17.0961 24.4121 17.5056 23.3813 17.5056C22.3505 17.5056 21.3619 17.0961 20.633 16.3672C19.9041 15.6383 19.4946 14.6497 19.4946 13.6189V3.88664C19.4946 2.85584 19.9041 1.86726 20.633 1.13837C21.3619 0.409484 22.3505 0 23.3813 0C24.4121 0 25.4006 0.409484 26.1295 1.13837C26.8584 1.86726 27.2679 2.85584 27.2679 3.88664V13.6189Z" fill="white"/>
<path d="M23.3812 29.2266C24.1497 29.2272 24.9008 29.4557 25.5396 29.8832C26.1783 30.3107 26.6759 30.9179 26.9696 31.6282C27.2632 32.3384 27.3397 33.1198 27.1894 33.8735C27.0391 34.6272 26.6686 35.3194 26.125 35.8627C25.5813 36.4059 24.8887 36.7757 24.1349 36.9254C23.381 37.0751 22.5997 36.998 21.8897 36.7037C21.1797 36.4094 20.5729 35.9113 20.146 35.2722C19.7191 34.6331 19.4912 33.8818 19.4912 33.1132V29.2266H23.3812Z" fill="white"/>
<path d="M23.3813 27.2678C22.3505 27.2678 21.3619 26.8583 20.633 26.1294C19.9041 25.4005 19.4946 24.4119 19.4946 23.3811C19.4946 22.3503 19.9041 21.3618 20.633 20.6329C21.3619 19.904 22.3505 19.4945 23.3813 19.4945H33.1136C34.1444 19.4945 35.1329 19.904 35.8618 20.6329C36.5907 21.3618 37.0002 22.3503 37.0002 23.3811C37.0002 24.4119 36.5907 25.4005 35.8618 26.1294C35.1329 26.8583 34.1444 27.2678 33.1136 27.2678H23.3813Z" fill="white"/>
</svg>
