<svg width="265" height="25" viewBox="0 0 265 25" fill="none" xmlns="http://www.w3.org/2000/svg">
<path d="M0 18.6959V0H3.17526V18.6959H0Z" fill="#FFAB07"/>
<path d="M6.62339 18.6959V5.86788H9.79865V18.6959H6.62339ZM6.44558 3.45468V0.355628H9.97646V3.45468H6.44558Z" fill="#FFAB07"/>
<path d="M13.2468 18.6959V9.06854C13.2468 8.54356 13.2298 8.01012 13.196 7.46821C13.1621 6.9263 13.1113 6.39285 13.0436 5.86788H16.1172L16.3712 8.40808H16.0664C16.4728 7.51054 17.074 6.82469 17.87 6.35052C18.6659 5.85941 19.5888 5.61386 20.6388 5.61386C22.146 5.61386 23.2806 6.03722 24.0427 6.88396C24.8047 7.73069 25.1857 9.0516 25.1857 10.8467V18.6959H22.0105V10.9991C22.0105 9.96608 21.8073 9.22942 21.4008 8.78911C21.0113 8.33188 20.4186 8.10326 19.6227 8.10326C18.6405 8.10326 17.8615 8.40808 17.2857 9.01773C16.7099 9.62738 16.422 10.4402 16.422 11.4563V18.6959H13.2468Z" fill="#FFAB07"/>
<path d="M28.5525 18.6959V0H31.7278V11.3293H31.7786L36.986 5.86788H40.8217L34.3442 12.6502L34.3696 11.3801L41.2789 18.6959H37.3416L31.7786 12.9551H31.7278V18.6959H28.5525Z" fill="#FFAB07"/>
<path d="M42.5683 18.6959V5.86788H45.7436V18.6959H42.5683ZM42.3905 3.45468V0.355628H45.9214V3.45468H42.3905Z" fill="#FFAB07"/>
<path d="M49.1917 18.6959V9.06854C49.1917 8.54356 49.1748 8.01012 49.1409 7.46821C49.107 6.9263 49.0562 6.39285 48.9885 5.86788H52.0621L52.3161 8.40808H52.0113C52.4178 7.51054 53.0189 6.82469 53.8149 6.35052C54.6108 5.85941 55.5337 5.61386 56.5837 5.61386C58.0909 5.61386 59.2255 6.03722 59.9876 6.88396C60.7496 7.73069 61.1307 9.0516 61.1307 10.8467V18.6959H57.9554V10.9991C57.9554 9.96608 57.7522 9.22942 57.3457 8.78911C56.9563 8.33188 56.3635 8.10326 55.5676 8.10326C54.5854 8.10326 53.8064 8.40808 53.2306 9.01773C52.6548 9.62738 52.3669 10.4402 52.3669 11.4563V18.6959H49.1917Z" fill="#FFAB07"/>
<path d="M70.4415 24.386C69.2561 24.386 68.1807 24.259 67.2154 24.0049C66.2671 23.7509 65.4204 23.3614 64.6752 22.8365L65.3611 20.5503C65.8522 20.872 66.3602 21.1345 66.8852 21.3377C67.4102 21.541 67.9521 21.6934 68.5109 21.795C69.0698 21.8966 69.6371 21.9474 70.2129 21.9474C71.3983 21.9474 72.2789 21.651 72.8547 21.0583C73.4474 20.4825 73.7438 19.6527 73.7438 18.5689V15.4953H73.9978C73.7268 16.3759 73.1765 17.0787 72.3467 17.6036C71.5338 18.1286 70.5939 18.3911 69.527 18.3911C68.3755 18.3911 67.3679 18.1371 66.5042 17.629C65.6574 17.1041 64.997 16.3589 64.5228 15.3937C64.0486 14.4284 63.8116 13.2937 63.8116 11.9898C63.8116 10.6858 64.0486 9.55964 64.5228 8.6113C64.997 7.64602 65.6574 6.90936 66.5042 6.40132C67.3679 5.87634 68.3755 5.61386 69.527 5.61386C70.6109 5.61386 71.5507 5.87634 72.3467 6.40132C73.1595 6.90936 73.7014 7.60368 73.9724 8.48429L73.7438 8.33188L73.9978 5.86788H77.0714C77.0037 6.39285 76.9529 6.9263 76.919 7.46821C76.8852 8.01012 76.8682 8.54356 76.8682 9.06854V18.1879C76.8682 20.2031 76.3179 21.7357 75.2171 22.7857C74.1333 23.8525 72.5414 24.386 70.4415 24.386ZM70.3907 15.9525C71.4068 15.9525 72.2112 15.6138 72.8039 14.9364C73.4135 14.2421 73.7184 13.2599 73.7184 11.9898C73.7184 10.7197 73.4135 9.74592 72.8039 9.06854C72.2112 8.39115 71.4068 8.05245 70.3907 8.05245C69.3577 8.05245 68.5363 8.39115 67.9267 9.06854C67.317 9.74592 67.0122 10.7197 67.0122 11.9898C67.0122 13.2599 67.317 14.2421 67.9267 14.9364C68.5363 15.6138 69.3577 15.9525 70.3907 15.9525Z" fill="#FFAB07"/>
<path d="M93.1633 18.9499C91.8423 18.9499 90.6823 18.679 89.6832 18.1371C88.701 17.5952 87.9389 16.8246 87.397 15.8255C86.8551 14.8094 86.5841 13.607 86.5841 12.2184C86.5841 10.8297 86.8551 9.64432 87.397 8.6621C87.9558 7.67989 88.7264 6.9263 89.7086 6.40132C90.6908 5.87634 91.8423 5.61386 93.1633 5.61386C94.01 5.61386 94.8313 5.74933 95.6273 6.02029C96.4401 6.27431 97.1006 6.64687 97.6086 7.13798L96.6433 9.34796C96.1861 8.92459 95.6696 8.6113 95.0938 8.40808C94.535 8.18793 93.9846 8.07786 93.4427 8.07786C92.308 8.07786 91.419 8.43349 90.7755 9.14474C90.1489 9.856 89.8356 10.889 89.8356 12.2438C89.8356 13.5986 90.1489 14.6401 90.7755 15.3682C91.419 16.0964 92.308 16.4605 93.4427 16.4605C93.9676 16.4605 94.5096 16.3589 95.0684 16.1557C95.6442 15.9525 96.1692 15.6392 96.6433 15.2158L97.6086 17.4004C97.0836 17.8915 96.4147 18.2726 95.6019 18.5435C94.8059 18.8145 93.9931 18.9499 93.1633 18.9499Z" fill="#FFAB07"/>
<path d="M104.949 18.9499C103.832 18.9499 102.849 18.6875 102.003 18.1625C101.156 17.6206 100.495 16.85 100.021 15.8509C99.547 14.8517 99.31 13.6578 99.31 12.2692C99.31 10.8806 99.547 9.69512 100.021 8.71291C100.495 7.71376 101.156 6.9517 102.003 6.42672C102.849 5.88481 103.832 5.61386 104.949 5.61386C106.033 5.61386 106.981 5.88481 107.794 6.42672C108.624 6.9517 109.174 7.66296 109.445 8.5605H109.166L109.445 5.86788H112.494C112.443 6.39285 112.392 6.9263 112.341 7.46821C112.307 8.01012 112.29 8.54356 112.29 9.06854V18.6959H109.141L109.115 16.0541H109.42C109.149 16.9347 108.599 17.6375 107.769 18.1625C106.939 18.6875 105.999 18.9499 104.949 18.9499ZM105.838 16.5113C106.837 16.5113 107.642 16.1642 108.251 15.4699C108.861 14.7586 109.166 13.6917 109.166 12.2692C109.166 10.8467 108.861 9.78826 108.251 9.09394C107.642 8.39962 106.837 8.05245 105.838 8.05245C104.839 8.05245 104.035 8.39962 103.425 9.09394C102.815 9.78826 102.511 10.8467 102.511 12.2692C102.511 13.6917 102.807 14.7586 103.4 15.4699C104.009 16.1642 104.822 16.5113 105.838 16.5113Z" fill="#FFAB07"/>
<path d="M115.748 18.6959V9.06854C115.748 8.54356 115.731 8.01012 115.697 7.46821C115.663 6.9263 115.613 6.39285 115.545 5.86788H118.618L118.873 8.40808H118.568C118.974 7.51054 119.575 6.82469 120.371 6.35052C121.167 5.85941 122.09 5.61386 123.14 5.61386C124.647 5.61386 125.782 6.03722 126.544 6.88396C127.306 7.73069 127.687 9.0516 127.687 10.8467V18.6959H124.512V10.9991C124.512 9.96608 124.309 9.22942 123.902 8.78911C123.513 8.33188 122.92 8.10326 122.124 8.10326C121.142 8.10326 120.363 8.40808 119.787 9.01773C119.211 9.62738 118.923 10.4402 118.923 11.4563V18.6959H115.748Z" fill="#FFAB07"/>
<path d="M131.054 18.6959V5.86788H134.229V18.6959H131.054ZM130.876 3.45468V0.355628H134.407V3.45468H130.876Z" fill="#FFAB07"/>
<path d="M137.677 18.6959V9.06854C137.677 8.54356 137.66 8.01012 137.626 7.46821C137.593 6.9263 137.542 6.39285 137.474 5.86788H140.548L140.802 8.40808H140.497C140.903 7.51054 141.504 6.82469 142.3 6.35052C143.096 5.85941 144.019 5.61386 145.069 5.61386C146.576 5.61386 147.711 6.03722 148.473 6.88396C149.235 7.73069 149.616 9.0516 149.616 10.8467V18.6959H146.441V10.9991C146.441 9.96608 146.238 9.22942 145.831 8.78911C145.442 8.33188 144.849 8.10326 144.053 8.10326C143.071 8.10326 142.292 8.40808 141.716 9.01773C141.14 9.62738 140.852 10.4402 140.852 11.4563V18.6959H137.677Z" fill="#FFAB07"/>
<path d="M159.181 18.9499C157.03 18.9499 155.345 18.3572 154.126 17.1718C152.907 15.9864 152.297 14.3606 152.297 12.2946C152.297 10.9568 152.56 9.78826 153.085 8.78911C153.61 7.78997 154.338 7.01097 155.269 6.45212C156.217 5.89328 157.318 5.61386 158.571 5.61386C159.808 5.61386 160.841 5.87634 161.67 6.40132C162.5 6.9263 163.127 7.66296 163.55 8.6113C163.99 9.55964 164.211 10.6689 164.211 11.939V12.7772H154.863V11.1007H161.95L161.518 11.4563C161.518 10.2709 161.264 9.36489 160.756 8.73831C160.265 8.11173 159.545 7.79843 158.597 7.79843C157.547 7.79843 156.734 8.171 156.158 8.91612C155.599 9.66125 155.32 10.7027 155.32 12.0406V12.3708C155.32 13.7595 155.659 14.8009 156.336 15.4953C157.03 16.1726 158.004 16.5113 159.257 16.5113C159.985 16.5113 160.663 16.4182 161.289 16.2319C161.933 16.0287 162.543 15.7069 163.118 15.2666L164.058 17.4004C163.449 17.8915 162.72 18.2726 161.874 18.5435C161.027 18.8145 160.129 18.9499 159.181 18.9499Z" fill="#FFAB07"/>
<path d="M173.87 24.1828V9.06854C173.87 8.54356 173.853 8.01012 173.819 7.46821C173.785 6.9263 173.735 6.39285 173.667 5.86788H176.741L177.02 8.5605H176.741C176.995 7.66296 177.528 6.9517 178.341 6.42672C179.171 5.88481 180.128 5.61386 181.211 5.61386C182.346 5.61386 183.337 5.88481 184.183 6.42672C185.03 6.9517 185.691 7.71376 186.165 8.71291C186.639 9.69512 186.876 10.8806 186.876 12.2692C186.876 13.6578 186.639 14.8517 186.165 15.8509C185.691 16.85 185.03 17.6206 184.183 18.1625C183.337 18.6875 182.346 18.9499 181.211 18.9499C180.144 18.9499 179.205 18.6875 178.392 18.1625C177.579 17.6375 177.037 16.9347 176.766 16.0541H177.045V24.1828H173.87ZM180.322 16.5113C181.338 16.5113 182.151 16.1642 182.761 15.4699C183.371 14.7586 183.675 13.6917 183.675 12.2692C183.675 10.8467 183.371 9.78826 182.761 9.09394C182.151 8.39962 181.338 8.05245 180.322 8.05245C179.323 8.05245 178.519 8.39962 177.909 9.09394C177.299 9.78826 176.995 10.8467 176.995 12.2692C176.995 13.6917 177.299 14.7586 177.909 15.4699C178.519 16.1642 179.323 16.5113 180.322 16.5113Z" fill="#FFAB07"/>
<path d="M194.576 18.9499C193.458 18.9499 192.476 18.6875 191.629 18.1625C190.782 17.6206 190.122 16.85 189.648 15.8509C189.174 14.8517 188.937 13.6578 188.937 12.2692C188.937 10.8806 189.174 9.69512 189.648 8.71291C190.122 7.71376 190.782 6.9517 191.629 6.42672C192.476 5.88481 193.458 5.61386 194.576 5.61386C195.66 5.61386 196.608 5.88481 197.421 6.42672C198.251 6.9517 198.801 7.66296 199.072 8.5605H198.793L199.072 5.86788H202.12C202.069 6.39285 202.019 6.9263 201.968 7.46821C201.934 8.01012 201.917 8.54356 201.917 9.06854V18.6959H198.767L198.742 16.0541H199.047C198.776 16.9347 198.225 17.6375 197.395 18.1625C196.566 18.6875 195.626 18.9499 194.576 18.9499ZM195.465 16.5113C196.464 16.5113 197.268 16.1642 197.878 15.4699C198.488 14.7586 198.793 13.6917 198.793 12.2692C198.793 10.8467 198.488 9.78826 197.878 9.09394C197.268 8.39962 196.464 8.05245 195.465 8.05245C194.466 8.05245 193.661 8.39962 193.052 9.09394C192.442 9.78826 192.137 10.8467 192.137 12.2692C192.137 13.6917 192.434 14.7586 193.026 15.4699C193.636 16.1642 194.449 16.5113 195.465 16.5113Z" fill="#FFAB07"/>
<path d="M205.349 18.6959V9.14474C205.349 8.60283 205.332 8.05245 205.298 7.49361C205.282 6.93476 205.239 6.39285 205.171 5.86788H208.245L208.601 9.37336H208.093C208.262 8.52663 208.541 7.82384 208.931 7.26499C209.337 6.70615 209.829 6.29125 210.404 6.02029C210.98 5.74933 211.607 5.61386 212.284 5.61386C212.589 5.61386 212.834 5.63079 213.021 5.66466C213.207 5.6816 213.393 5.72393 213.58 5.79167L213.554 8.5859C213.232 8.45042 212.953 8.36575 212.716 8.33188C212.496 8.29801 212.216 8.28107 211.878 8.28107C211.149 8.28107 210.531 8.43349 210.023 8.73831C209.532 9.04313 209.16 9.4665 208.906 10.0084C208.668 10.5503 208.55 11.1684 208.55 11.8628V18.6959H205.349Z" fill="#FFAB07"/>
<path d="M221.347 18.9499C219.196 18.9499 217.511 18.3572 216.292 17.1718C215.072 15.9864 214.463 14.3606 214.463 12.2946C214.463 10.9568 214.725 9.78826 215.25 8.78911C215.775 7.78997 216.503 7.01097 217.435 6.45212C218.383 5.89328 219.484 5.61386 220.737 5.61386C221.973 5.61386 223.006 5.87634 223.836 6.40132C224.666 6.9263 225.292 7.66296 225.716 8.6113C226.156 9.55964 226.376 10.6689 226.376 11.939V12.7772H217.028V11.1007H224.115L223.684 11.4563C223.684 10.2709 223.43 9.36489 222.922 8.73831C222.43 8.11173 221.711 7.79843 220.762 7.79843C219.712 7.79843 218.9 8.171 218.324 8.91612C217.765 9.66125 217.486 10.7027 217.486 12.0406V12.3708C217.486 13.7595 217.824 14.8009 218.502 15.4953C219.196 16.1726 220.17 16.5113 221.423 16.5113C222.151 16.5113 222.828 16.4182 223.455 16.2319C224.099 16.0287 224.708 15.7069 225.284 15.2666L226.224 17.4004C225.614 17.8915 224.886 18.2726 224.039 18.5435C223.192 18.8145 222.295 18.9499 221.347 18.9499Z" fill="#FFAB07"/>
<path d="M229.065 18.6959V9.06854C229.065 8.54356 229.048 8.01012 229.014 7.46821C228.98 6.9263 228.93 6.39285 228.862 5.86788H231.936L232.19 8.40808H231.885C232.291 7.51054 232.892 6.82469 233.688 6.35052C234.484 5.85941 235.407 5.61386 236.457 5.61386C237.964 5.61386 239.099 6.03722 239.861 6.88396C240.623 7.73069 241.004 9.0516 241.004 10.8467V18.6959H237.829V10.9991C237.829 9.96608 237.626 9.22942 237.219 8.78911C236.83 8.33188 236.237 8.10326 235.441 8.10326C234.459 8.10326 233.68 8.40808 233.104 9.01773C232.528 9.62738 232.24 10.4402 232.24 11.4563V18.6959H229.065Z" fill="#FFAB07"/>
<path d="M249.858 18.9499C248.334 18.9499 247.182 18.552 246.403 17.756C245.624 16.9601 245.234 15.7662 245.234 14.1744V8.25567H242.77V5.86788H245.234V2.59101L248.41 1.77815V5.86788H251.839V8.25567H248.41V13.9711C248.41 14.8517 248.579 15.4699 248.918 15.8255C249.256 16.1811 249.722 16.3589 250.315 16.3589C250.637 16.3589 250.908 16.3335 251.128 16.2827C251.365 16.2319 251.593 16.1642 251.814 16.0795V18.5943C251.526 18.7129 251.204 18.7975 250.848 18.8483C250.51 18.9161 250.179 18.9499 249.858 18.9499Z" fill="#FFAB07"/>
<path d="M258.568 18.9499C257.467 18.9499 256.451 18.8229 255.52 18.5689C254.605 18.298 253.835 17.9254 253.208 17.4512L254.097 15.3174C254.741 15.7577 255.452 16.0964 256.231 16.3335C257.01 16.5706 257.798 16.6892 258.594 16.6892C259.44 16.6892 260.067 16.5452 260.473 16.2573C260.897 15.9694 261.108 15.5799 261.108 15.0888C261.108 14.6993 260.973 14.3945 260.702 14.1744C260.448 13.9373 260.033 13.7595 259.457 13.6409L256.917 13.1583C255.833 12.9212 255.003 12.5148 254.428 11.939C253.869 11.3632 253.589 10.6096 253.589 9.67819C253.589 8.88226 253.801 8.17946 254.224 7.56982C254.665 6.96017 255.283 6.48599 256.079 6.1473C256.892 5.79167 257.84 5.61386 258.924 5.61386C259.872 5.61386 260.761 5.74087 261.591 5.99489C262.438 6.24891 263.149 6.62994 263.725 7.13798L262.81 9.19555C262.285 8.77218 261.684 8.44195 261.007 8.20487C260.329 7.96778 259.669 7.84924 259.025 7.84924C258.145 7.84924 257.501 8.01012 257.095 8.33188C256.688 8.6367 256.485 9.03467 256.485 9.52577C256.485 9.89834 256.604 10.2116 256.841 10.4657C257.095 10.7027 257.484 10.8806 258.009 10.9991L260.55 11.4817C261.684 11.7019 262.539 12.0914 263.115 12.6502C263.708 13.1921 264.004 13.9373 264.004 14.8856C264.004 15.7323 263.776 16.4605 263.318 17.0702C262.861 17.6798 262.226 18.1455 261.413 18.4673C260.6 18.7891 259.652 18.9499 258.568 18.9499Z" fill="#FFAB07"/>
</svg>
