<svg width="168" height="25" viewBox="0 0 168 25" fill="none" xmlns="http://www.w3.org/2000/svg">
<path d="M7.23024 19.254C5.79079 19.254 4.46142 19.0762 3.24212 18.7206C2.03975 18.348 1.00674 17.84 0.143066 17.1964L1.15915 14.6308C1.73493 15.0373 2.33611 15.3844 2.9627 15.6723C3.58928 15.9433 4.2582 16.155 4.96946 16.3074C5.68072 16.4429 6.43431 16.5106 7.23024 16.5106C8.56808 16.5106 9.53336 16.2904 10.1261 15.8501C10.7188 15.4098 11.0151 14.8341 11.0151 14.1228C11.0151 13.4962 10.8119 13.022 10.4055 12.7003C9.99907 12.3616 9.27087 12.0822 8.22092 11.862L5.35049 11.2778C3.70782 10.9391 2.48006 10.3718 1.66719 9.57583C0.854324 8.7799 0.447891 7.71301 0.447891 6.37517C0.447891 5.25748 0.744249 4.28373 1.33696 3.45393C1.92968 2.62413 2.75948 1.98061 3.82637 1.52338C4.89325 1.06614 6.13795 0.837521 7.56047 0.837521C8.83057 0.837521 10.0075 1.0238 11.0914 1.39637C12.1752 1.75199 13.0812 2.2685 13.8094 2.94589L12.7933 5.38449C12.0651 4.77484 11.2692 4.32607 10.4055 4.03818C9.54183 3.73336 8.57655 3.58094 7.50966 3.58094C6.3073 3.58094 5.36742 3.81803 4.69004 4.2922C4.02958 4.74944 3.69935 5.38449 3.69935 6.19736C3.69935 6.82394 3.90257 7.32351 4.309 7.69608C4.73237 8.06864 5.44363 8.35653 6.44278 8.55975L9.28781 9.11859C10.9813 9.45729 12.2344 10.0161 13.0473 10.7951C13.8602 11.5572 14.2666 12.5902 14.2666 13.8942C14.2666 14.9611 13.9787 15.9009 13.4029 16.7138C12.8272 17.5097 12.0143 18.1363 10.9643 18.5936C9.91439 19.0339 8.66969 19.254 7.23024 19.254Z" fill="#FFAB07"/>
<path d="M17.0997 19V6.17195H20.275V19H17.0997ZM16.9219 3.75876V0.659706H20.4528V3.75876H16.9219Z" fill="#FFAB07"/>
<path d="M23.7231 19V9.37261C23.7231 8.84764 23.7062 8.31419 23.6723 7.77228C23.6385 7.23037 23.5876 6.69693 23.5199 6.17195H26.5936L26.8476 8.71216H26.5428C26.8984 7.83156 27.4403 7.1457 28.1685 6.65459C28.9136 6.16349 29.7942 5.91793 30.8103 5.91793C31.8264 5.91793 32.6647 6.16349 33.3251 6.65459C34.0025 7.12876 34.4767 7.87389 34.7476 8.88997H34.3412C34.6968 7.9755 35.2811 7.25578 36.0939 6.7308C36.9068 6.18889 37.8382 5.91793 38.8882 5.91793C40.3276 5.91793 41.403 6.3413 42.1142 7.18804C42.8255 8.03477 43.1811 9.35568 43.1811 11.1508V19H40.0058V11.2778C40.0058 10.2617 39.8365 9.53349 39.4978 9.09319C39.1591 8.63595 38.6172 8.40734 37.8721 8.40734C36.9915 8.40734 36.2971 8.72063 35.7891 9.34721C35.2811 9.95686 35.027 10.7867 35.027 11.8366V19H31.8518V11.2778C31.8518 10.2617 31.6824 9.53349 31.3437 9.09319C31.005 8.63595 30.4631 8.40734 29.718 8.40734C28.8374 8.40734 28.1431 8.72063 27.635 9.34721C27.1439 9.95686 26.8984 10.7867 26.8984 11.8366V19H23.7231Z" fill="#FFAB07"/>
<path d="M46.5701 24.4868V9.37261C46.5701 8.84764 46.5532 8.31419 46.5193 7.77228C46.4854 7.23037 46.4346 6.69693 46.3669 6.17195H49.4405L49.72 8.86457H49.4405C49.6946 7.96703 50.228 7.25578 51.0409 6.7308C51.8707 6.18889 52.8275 5.91793 53.9113 5.91793C55.0459 5.91793 56.0366 6.18889 56.8833 6.7308C57.7301 7.25578 58.3905 8.01784 58.8647 9.01698C59.3389 9.9992 59.576 11.1846 59.576 12.5733C59.576 13.9619 59.3389 15.1558 58.8647 16.155C58.3905 17.1541 57.7301 17.9246 56.8833 18.4666C56.0366 18.9915 55.0459 19.254 53.9113 19.254C52.8444 19.254 51.9045 18.9915 51.0917 18.4666C50.2788 17.9416 49.7369 17.2388 49.4659 16.3582H49.7454V24.4868H46.5701ZM53.0222 16.8154C54.0383 16.8154 54.8512 16.4683 55.4608 15.7739C56.0705 15.0627 56.3753 13.9958 56.3753 12.5733C56.3753 11.1508 56.0705 10.0923 55.4608 9.39802C54.8512 8.70369 54.0383 8.35653 53.0222 8.35653C52.0231 8.35653 51.2187 8.70369 50.609 9.39802C49.9994 10.0923 49.6946 11.1508 49.6946 12.5733C49.6946 13.9958 49.9994 15.0627 50.609 15.7739C51.2187 16.4683 52.0231 16.8154 53.0222 16.8154Z" fill="#FFAB07"/>
<path d="M62.3224 19V0.304077H65.4976V19H62.3224Z" fill="#FFAB07"/>
<path d="M75.1439 19.254C72.9931 19.254 71.3081 18.6613 70.0888 17.4759C68.8695 16.2904 68.2599 14.6647 68.2599 12.5987C68.2599 11.2608 68.5224 10.0923 69.0474 9.09319C69.5723 8.09404 70.3005 7.31505 71.2319 6.7562C72.1803 6.19736 73.281 5.91793 74.5342 5.91793C75.7704 5.91793 76.8035 6.18042 77.6333 6.7054C78.4631 7.23037 79.0896 7.96703 79.513 8.91538C79.9533 9.86372 80.1735 10.9729 80.1735 12.243V13.0813H70.8255V11.4048H77.9127L77.4808 11.7604C77.4808 10.575 77.2268 9.66897 76.7188 9.04239C76.2277 8.4158 75.5079 8.10251 74.5596 8.10251C73.5096 8.10251 72.6968 8.47507 72.121 9.2202C71.5622 9.96533 71.2827 11.0068 71.2827 12.3447V12.6749C71.2827 14.0635 71.6214 15.105 72.2988 15.7993C72.9931 16.4767 73.9669 16.8154 75.2201 16.8154C75.9482 16.8154 76.6256 16.7223 77.2522 16.536C77.8957 16.3328 78.5054 16.011 79.0812 15.5707L80.021 17.7045C79.4114 18.1956 78.6832 18.5766 77.8365 18.8476C76.9897 19.1185 76.0922 19.254 75.1439 19.254Z" fill="#FFAB07"/>
<path d="M94.7864 19.254C93.6687 19.254 92.6865 18.9915 91.8397 18.4666C90.993 17.9246 90.3326 17.1541 89.8584 16.155C89.3842 15.1558 89.1471 13.9619 89.1471 12.5733C89.1471 11.1846 89.3842 9.9992 89.8584 9.01698C90.3326 8.01784 90.993 7.25578 91.8397 6.7308C92.6865 6.18889 93.6687 5.91793 94.7864 5.91793C95.8702 5.91793 96.8186 6.18889 97.6314 6.7308C98.4612 7.25578 99.0116 7.96703 99.2826 8.86457H99.0031L99.2826 6.17195H102.331C102.28 6.69693 102.229 7.23037 102.178 7.77228C102.145 8.31419 102.128 8.84764 102.128 9.37261V19H98.9777L98.9523 16.3582H99.2571C98.9862 17.2388 98.4358 17.9416 97.606 18.4666C96.7762 18.9915 95.8363 19.254 94.7864 19.254ZM95.6755 16.8154C96.6746 16.8154 97.479 16.4683 98.0887 15.7739C98.6983 15.0627 99.0031 13.9958 99.0031 12.5733C99.0031 11.1508 98.6983 10.0923 98.0887 9.39802C97.479 8.70369 96.6746 8.35653 95.6755 8.35653C94.6763 8.35653 93.8719 8.70369 93.2623 9.39802C92.6526 10.0923 92.3478 11.1508 92.3478 12.5733C92.3478 13.9958 92.6441 15.0627 93.2369 15.7739C93.8465 16.4683 94.6594 16.8154 95.6755 16.8154Z" fill="#FFAB07"/>
<path d="M111.479 19.254C110.158 19.254 108.998 18.9831 107.998 18.4412C107.016 17.8992 106.254 17.1287 105.712 16.1296C105.17 15.1135 104.899 13.9111 104.899 12.5225C104.899 11.1338 105.17 9.94839 105.712 8.96618C106.271 7.98397 107.042 7.23037 108.024 6.7054C109.006 6.18042 110.158 5.91793 111.479 5.91793C112.325 5.91793 113.147 6.05341 113.943 6.32437C114.755 6.57839 115.416 6.95095 115.924 7.44206L114.959 9.65204C114.501 9.22867 113.985 8.91538 113.409 8.71216C112.85 8.49201 112.3 8.38193 111.758 8.38193C110.623 8.38193 109.734 8.73756 109.091 9.44882C108.464 10.1601 108.151 11.1931 108.151 12.5479C108.151 13.9026 108.464 14.9441 109.091 15.6723C109.734 16.4005 110.623 16.7646 111.758 16.7646C112.283 16.7646 112.825 16.663 113.384 16.4598C113.959 16.2566 114.484 15.9433 114.959 15.5199L115.924 17.7045C115.399 18.1956 114.73 18.5766 113.917 18.8476C113.121 19.1185 112.308 19.254 111.479 19.254Z" fill="#FFAB07"/>
<path d="M124.031 19.254C122.71 19.254 121.55 18.9831 120.551 18.4412C119.568 17.8992 118.806 17.1287 118.264 16.1296C117.723 15.1135 117.452 13.9111 117.452 12.5225C117.452 11.1338 117.723 9.94839 118.264 8.96618C118.823 7.98397 119.594 7.23037 120.576 6.7054C121.558 6.18042 122.71 5.91793 124.031 5.91793C124.877 5.91793 125.699 6.05341 126.495 6.32437C127.308 6.57839 127.968 6.95095 128.476 7.44206L127.511 9.65204C127.054 9.22867 126.537 8.91538 125.961 8.71216C125.402 8.49201 124.852 8.38193 124.31 8.38193C123.176 8.38193 122.286 8.73756 121.643 9.44882C121.016 10.1601 120.703 11.1931 120.703 12.5479C120.703 13.9026 121.016 14.9441 121.643 15.6723C122.286 16.4005 123.176 16.7646 124.31 16.7646C124.835 16.7646 125.377 16.663 125.936 16.4598C126.512 16.2566 127.037 15.9433 127.511 15.5199L128.476 17.7045C127.951 18.1956 127.282 18.5766 126.469 18.8476C125.673 19.1185 124.861 19.254 124.031 19.254Z" fill="#FFAB07"/>
<path d="M136.888 19.254C134.737 19.254 133.052 18.6613 131.833 17.4759C130.613 16.2904 130.004 14.6647 130.004 12.5987C130.004 11.2608 130.266 10.0923 130.791 9.09319C131.316 8.09404 132.044 7.31505 132.976 6.7562C133.924 6.19736 135.025 5.91793 136.278 5.91793C137.514 5.91793 138.547 6.18042 139.377 6.7054C140.207 7.23037 140.834 7.96703 141.257 8.91538C141.697 9.86372 141.917 10.9729 141.917 12.243V13.0813H132.569V11.4048H139.657L139.225 11.7604C139.225 10.575 138.971 9.66897 138.463 9.04239C137.972 8.4158 137.252 8.10251 136.303 8.10251C135.254 8.10251 134.441 8.47507 133.865 9.2202C133.306 9.96533 133.027 11.0068 133.027 12.3447V12.6749C133.027 14.0635 133.365 15.105 134.043 15.7993C134.737 16.4767 135.711 16.8154 136.964 16.8154C137.692 16.8154 138.37 16.7223 138.996 16.536C139.64 16.3328 140.249 16.011 140.825 15.5707L141.765 17.7045C141.155 18.1956 140.427 18.5766 139.58 18.8476C138.734 19.1185 137.836 19.254 136.888 19.254Z" fill="#FFAB07"/>
<path d="M149.179 19.254C148.078 19.254 147.062 19.127 146.13 18.873C145.216 18.602 144.445 18.2295 143.819 17.7553L144.708 15.6215C145.351 16.0618 146.063 16.4005 146.842 16.6376C147.621 16.8747 148.408 16.9932 149.204 16.9932C150.051 16.9932 150.677 16.8493 151.084 16.5614C151.507 16.2735 151.719 15.884 151.719 15.3929C151.719 15.0034 151.583 14.6986 151.312 14.4784C151.058 14.2413 150.643 14.0635 150.068 13.945L147.527 13.4623C146.444 13.2253 145.614 12.8188 145.038 12.243C144.479 11.6673 144.2 10.9137 144.2 9.98226C144.2 9.18633 144.411 8.48354 144.835 7.87389C145.275 7.26424 145.893 6.79007 146.689 6.45138C147.502 6.09575 148.45 5.91793 149.534 5.91793C150.483 5.91793 151.372 6.04494 152.201 6.29896C153.048 6.55299 153.759 6.93402 154.335 7.44206L153.421 9.49962C152.896 9.07626 152.295 8.74603 151.617 8.50894C150.94 8.27186 150.279 8.15332 149.636 8.15332C148.755 8.15332 148.112 8.31419 147.705 8.63595C147.299 8.94078 147.096 9.33874 147.096 9.82985C147.096 10.2024 147.214 10.5157 147.451 10.7697C147.705 11.0068 148.095 11.1846 148.62 11.3032L151.16 11.7858C152.295 12.006 153.15 12.3955 153.726 12.9543C154.318 13.4962 154.615 14.2413 154.615 15.1897C154.615 16.0364 154.386 16.7646 153.929 17.3743C153.471 17.9839 152.836 18.4496 152.024 18.7714C151.211 19.0931 150.262 19.254 149.179 19.254Z" fill="#FFAB07"/>
<path d="M161.904 19.254C160.804 19.254 159.788 19.127 158.856 18.873C157.942 18.602 157.171 18.2295 156.545 17.7553L157.434 15.6215C158.077 16.0618 158.788 16.4005 159.567 16.6376C160.346 16.8747 161.134 16.9932 161.93 16.9932C162.777 16.9932 163.403 16.8493 163.81 16.5614C164.233 16.2735 164.445 15.884 164.445 15.3929C164.445 15.0034 164.309 14.6986 164.038 14.4784C163.784 14.2413 163.369 14.0635 162.793 13.945L160.253 13.4623C159.169 13.2253 158.34 12.8188 157.764 12.243C157.205 11.6673 156.926 10.9137 156.926 9.98226C156.926 9.18633 157.137 8.48354 157.561 7.87389C158.001 7.26424 158.619 6.79007 159.415 6.45138C160.228 6.09575 161.176 5.91793 162.26 5.91793C163.208 5.91793 164.097 6.04494 164.927 6.29896C165.774 6.55299 166.485 6.93402 167.061 7.44206L166.147 9.49962C165.622 9.07626 165.02 8.74603 164.343 8.50894C163.666 8.27186 163.005 8.15332 162.362 8.15332C161.481 8.15332 160.837 8.31419 160.431 8.63595C160.025 8.94078 159.821 9.33874 159.821 9.82985C159.821 10.2024 159.94 10.5157 160.177 10.7697C160.431 11.0068 160.821 11.1846 161.346 11.3032L163.886 11.7858C165.02 12.006 165.876 12.3955 166.451 12.9543C167.044 13.4962 167.34 14.2413 167.34 15.1897C167.34 16.0364 167.112 16.7646 166.655 17.3743C166.197 17.9839 165.562 18.4496 164.749 18.7714C163.937 19.0931 162.988 19.254 161.904 19.254Z" fill="#FFAB07"/>
</svg>
