<svg width="320" height="25" viewBox="0 0 320 25" fill="none" xmlns="http://www.w3.org/2000/svg">
<path d="M7.23024 19.2541C5.79079 19.2541 4.46142 19.0762 3.24212 18.7206C2.03975 18.3481 1.00674 17.84 0.143066 17.1965L1.15915 14.6309C1.73493 15.0373 2.33611 15.3845 2.9627 15.6724C3.58928 15.9433 4.2582 16.155 4.96946 16.3074C5.68072 16.4429 6.43431 16.5106 7.23024 16.5106C8.56808 16.5106 9.53336 16.2905 10.1261 15.8502C10.7188 15.4099 11.0151 14.8341 11.0151 14.1228C11.0151 13.4963 10.8119 13.0221 10.4055 12.7003C9.99907 12.3616 9.27087 12.0822 8.22092 11.8621L5.35049 11.2778C3.70782 10.9391 2.48006 10.3718 1.66719 9.57587C0.854324 8.77994 0.447891 7.71306 0.447891 6.37522C0.447891 5.25753 0.744249 4.28378 1.33696 3.45398C1.92968 2.62418 2.75948 1.98066 3.82637 1.52342C4.89325 1.06618 6.13795 0.837566 7.56047 0.837566C8.83057 0.837566 10.0075 1.02385 11.0914 1.39641C12.1752 1.75204 13.0812 2.26855 13.8094 2.94594L12.7933 5.38454C12.0651 4.77489 11.2692 4.32612 10.4055 4.03822C9.54183 3.7334 8.57655 3.58099 7.50966 3.58099C6.3073 3.58099 5.36742 3.81807 4.69004 4.29225C4.02958 4.74948 3.69935 5.38453 3.69935 6.1974C3.69935 6.82399 3.90257 7.32356 4.309 7.69612C4.73237 8.06869 5.44363 8.35658 6.44278 8.55979L9.28781 9.11864C10.9813 9.45733 12.2344 10.0162 13.0473 10.7952C13.8602 11.5572 14.2666 12.5903 14.2666 13.8942C14.2666 14.9611 13.9787 15.901 13.4029 16.7139C12.8272 17.5098 12.0143 18.1364 10.9643 18.5936C9.91439 19.0339 8.66969 19.2541 7.23024 19.2541Z" fill="#127F7A"/>
<path d="M17.0997 19V9.37266C17.0997 8.84768 17.0828 8.31424 17.0489 7.77233C17.0151 7.23042 16.9643 6.69697 16.8965 6.172H19.9702L20.2242 8.7122H19.9194C20.275 7.8316 20.8169 7.14574 21.5451 6.65464C22.2902 6.16353 23.1708 5.91798 24.1869 5.91798C25.203 5.91798 26.0413 6.16353 26.7017 6.65464C27.3791 7.12881 27.8533 7.87394 28.1242 8.89002H27.7178C28.0734 7.97554 28.6577 7.25582 29.4705 6.73084C30.2834 6.18893 31.2148 5.91798 32.2648 5.91798C33.7042 5.91798 34.7796 6.34135 35.4908 7.18808C36.2021 8.03482 36.5577 9.35572 36.5577 11.1508V19H33.3825V11.2778C33.3825 10.2617 33.2131 9.53354 32.8744 9.09324C32.5357 8.636 31.9938 8.40738 31.2487 8.40738C30.3681 8.40738 29.6738 8.72067 29.1657 9.34726C28.6577 9.95691 28.4037 10.7867 28.4037 11.8367V19H25.2284V11.2778C25.2284 10.2617 25.059 9.53354 24.7204 9.09324C24.3817 8.636 23.8398 8.40738 23.0946 8.40738C22.214 8.40738 21.5197 8.72067 21.0117 9.34726C20.5205 9.95691 20.275 10.7867 20.275 11.8367V19H17.0997Z" fill="#127F7A"/>
<path d="M45.7384 19.2541C44.4175 19.2541 43.2744 18.9831 42.3091 18.4412C41.3438 17.8993 40.5902 17.1288 40.0483 16.1296C39.5233 15.1305 39.2609 13.945 39.2609 12.5733C39.2609 11.2016 39.5233 10.0246 40.0483 9.04243C40.5902 8.04328 41.3438 7.27276 42.3091 6.73084C43.2744 6.18893 44.4175 5.91798 45.7384 5.91798C47.0593 5.91798 48.2024 6.18893 49.1677 6.73084C50.1499 7.27276 50.9035 8.04328 51.4284 9.04243C51.9704 10.0246 52.2413 11.2016 52.2413 12.5733C52.2413 13.945 51.9704 15.1305 51.4284 16.1296C50.9035 17.1288 50.1499 17.8993 49.1677 18.4412C48.2024 18.9831 47.0593 19.2541 45.7384 19.2541ZM45.7384 16.8155C46.7375 16.8155 47.5335 16.4683 48.1262 15.774C48.7189 15.0627 49.0152 13.9958 49.0152 12.5733C49.0152 11.1508 48.7189 10.0924 48.1262 9.39806C47.5335 8.70374 46.7375 8.35658 45.7384 8.35658C44.7392 8.35658 43.9433 8.70374 43.3506 9.39806C42.7579 10.0924 42.4615 11.1508 42.4615 12.5733C42.4615 13.9958 42.7579 15.0627 43.3506 15.774C43.9433 16.4683 44.7392 16.8155 45.7384 16.8155Z" fill="#127F7A"/>
<path d="M60.7712 19.2541C59.4503 19.2541 58.3072 18.9831 57.342 18.4412C56.3767 17.8993 55.6231 17.1288 55.0812 16.1296C54.5562 15.1305 54.2937 13.945 54.2937 12.5733C54.2937 11.2016 54.5562 10.0246 55.0812 9.04243C55.6231 8.04328 56.3767 7.27276 57.342 6.73084C58.3072 6.18893 59.4503 5.91798 60.7712 5.91798C62.0921 5.91798 63.2352 6.18893 64.2005 6.73084C65.1827 7.27276 65.9363 8.04328 66.4613 9.04243C67.0032 10.0246 67.2742 11.2016 67.2742 12.5733C67.2742 13.945 67.0032 15.1305 66.4613 16.1296C65.9363 17.1288 65.1827 17.8993 64.2005 18.4412C63.2352 18.9831 62.0921 19.2541 60.7712 19.2541ZM60.7712 16.8155C61.7704 16.8155 62.5663 16.4683 63.159 15.774C63.7517 15.0627 64.0481 13.9958 64.0481 12.5733C64.0481 11.1508 63.7517 10.0924 63.159 9.39806C62.5663 8.70374 61.7704 8.35658 60.7712 8.35658C59.7721 8.35658 58.9762 8.70374 58.3834 9.39806C57.7907 10.0924 57.4944 11.1508 57.4944 12.5733C57.4944 13.9958 57.7907 15.0627 58.3834 15.774C58.9762 16.4683 59.7721 16.8155 60.7712 16.8155Z" fill="#127F7A"/>
<path d="M75.3752 19.2541C73.8511 19.2541 72.6996 18.8561 71.9206 18.0602C71.1416 17.2642 70.7521 16.0703 70.7521 14.4785V8.55979H68.2881V6.172H70.7521V2.89513L73.9273 2.08227V6.172H77.3566V8.55979H73.9273V14.2753C73.9273 15.1559 74.0967 15.774 74.4354 16.1296C74.7741 16.4852 75.2398 16.663 75.8325 16.663C76.1542 16.663 76.4252 16.6376 76.6453 16.5868C76.8824 16.536 77.111 16.4683 77.3312 16.3836V18.8984C77.0433 19.017 76.7215 19.1016 76.3659 19.1525C76.0272 19.2202 75.697 19.2541 75.3752 19.2541Z" fill="#127F7A"/>
<path d="M79.5134 19V0.304122H82.6887V8.73761H82.333C82.7225 7.82313 83.3237 7.12881 84.1366 6.65464C84.9494 6.16353 85.8808 5.91798 86.9308 5.91798C88.4549 5.91798 89.5896 6.34981 90.3347 7.21348C91.0798 8.06022 91.4524 9.35572 91.4524 11.1V19H88.2771V11.2524C88.2771 10.2533 88.0824 9.53354 87.6929 9.09324C87.3203 8.636 86.7191 8.40738 85.8893 8.40738C84.924 8.40738 84.145 8.71221 83.5523 9.32186C82.9765 9.91457 82.6887 10.7105 82.6887 11.7096V19H79.5134Z" fill="#127F7A"/>
<path d="M106.743 19.2541C105.626 19.2541 104.643 18.9916 103.797 18.4666C102.95 17.9247 102.289 17.1542 101.815 16.155C101.341 15.1559 101.104 13.962 101.104 12.5733C101.104 11.1847 101.341 9.99924 101.815 9.01703C102.289 8.01788 102.95 7.25582 103.797 6.73084C104.643 6.18893 105.626 5.91798 106.743 5.91798C107.827 5.91798 108.775 6.18893 109.588 6.73084C110.418 7.25582 110.968 7.96708 111.239 8.86462H110.96L111.239 6.172H114.288C114.237 6.69697 114.186 7.23042 114.135 7.77233C114.101 8.31424 114.084 8.84768 114.084 9.37266V19H110.935L110.909 16.3582H111.214C110.943 17.2388 110.393 17.9416 109.563 18.4666C108.733 18.9916 107.793 19.2541 106.743 19.2541ZM107.632 16.8155C108.631 16.8155 109.436 16.4683 110.045 15.774C110.655 15.0627 110.96 13.9958 110.96 12.5733C110.96 11.1508 110.655 10.0924 110.045 9.39806C109.436 8.70374 108.631 8.35658 107.632 8.35658C106.633 8.35658 105.829 8.70374 105.219 9.39806C104.609 10.0924 104.305 11.1508 104.305 12.5733C104.305 13.9958 104.601 15.0627 105.194 15.774C105.803 16.4683 106.616 16.8155 107.632 16.8155Z" fill="#127F7A"/>
<path d="M117.542 19V9.37266C117.542 8.84768 117.525 8.31424 117.491 7.77233C117.457 7.23042 117.407 6.69697 117.339 6.172H120.413L120.667 8.7122H120.362C120.768 7.81466 121.369 7.12881 122.165 6.65464C122.961 6.16353 123.884 5.91798 124.934 5.91798C126.441 5.91798 127.576 6.34135 128.338 7.18808C129.1 8.03482 129.481 9.35572 129.481 11.1508V19H126.306V11.3032C126.306 10.2702 126.103 9.53354 125.696 9.09324C125.307 8.636 124.714 8.40738 123.918 8.40738C122.936 8.40738 122.157 8.71221 121.581 9.32186C121.005 9.9315 120.717 10.7444 120.717 11.7605V19H117.542Z" fill="#127F7A"/>
<path d="M137.827 19.2541C136.709 19.2541 135.718 18.9916 134.855 18.4666C134.008 17.9247 133.347 17.1542 132.873 16.155C132.399 15.1559 132.162 13.962 132.162 12.5733C132.162 11.1847 132.399 9.99924 132.873 9.01703C133.347 8.01788 134.008 7.25582 134.855 6.73084C135.718 6.18893 136.709 5.91798 137.827 5.91798C138.893 5.91798 139.833 6.18047 140.646 6.70544C141.476 7.21348 142.026 7.90781 142.297 8.78841H141.967V0.304122H145.142V19H142.018V16.282H142.323C142.052 17.1965 141.501 17.9247 140.672 18.4666C139.859 18.9916 138.91 19.2541 137.827 19.2541ZM138.716 16.8155C139.715 16.8155 140.519 16.4683 141.129 15.774C141.739 15.0627 142.043 13.9958 142.043 12.5733C142.043 11.1508 141.739 10.0924 141.129 9.39806C140.519 8.70374 139.715 8.35658 138.716 8.35658C137.717 8.35658 136.904 8.70374 136.277 9.39806C135.667 10.0924 135.363 11.1508 135.363 12.5733C135.363 13.9958 135.667 15.0627 136.277 15.774C136.904 16.4683 137.717 16.8155 138.716 16.8155Z" fill="#127F7A"/>
<path d="M161.769 19.2541C159.618 19.2541 157.933 18.6613 156.714 17.4759C155.495 16.2905 154.885 14.6648 154.885 12.5987C154.885 11.2609 155.147 10.0924 155.672 9.09324C156.197 8.09409 156.926 7.31509 157.857 6.75625C158.805 6.1974 159.906 5.91798 161.159 5.91798C162.395 5.91798 163.428 6.18047 164.258 6.70544C165.088 7.23042 165.715 7.96708 166.138 8.91542C166.578 9.86377 166.798 10.973 166.798 12.2431V13.0814H157.45V11.4048H164.538L164.106 11.7605C164.106 10.575 163.852 9.66902 163.344 9.04243C162.853 8.41585 162.133 8.10256 161.185 8.10256C160.135 8.10256 159.322 8.47512 158.746 9.22025C158.187 9.96537 157.908 11.0069 157.908 12.3447V12.6749C157.908 14.0636 158.246 15.1051 158.924 15.7994C159.618 16.4768 160.592 16.8155 161.845 16.8155C162.573 16.8155 163.251 16.7223 163.877 16.536C164.521 16.3328 165.13 16.0111 165.706 15.5708L166.646 17.7045C166.036 18.1956 165.308 18.5767 164.461 18.8476C163.615 19.1186 162.717 19.2541 161.769 19.2541Z" fill="#127F7A"/>
<path d="M174.441 19.2541C173.323 19.2541 172.341 18.9916 171.494 18.4666C170.647 17.9247 169.987 17.1542 169.513 16.155C169.039 15.1559 168.801 13.962 168.801 12.5733C168.801 11.1847 169.039 9.99924 169.513 9.01703C169.987 8.01788 170.647 7.25582 171.494 6.73084C172.341 6.18893 173.323 5.91798 174.441 5.91798C175.525 5.91798 176.473 6.18893 177.286 6.73084C178.116 7.25582 178.666 7.96708 178.937 8.86462H178.657L178.937 6.172H181.985C181.934 6.69697 181.883 7.23042 181.833 7.77233C181.799 8.31424 181.782 8.84768 181.782 9.37266V19H178.632L178.607 16.3582H178.911C178.64 17.2388 178.09 17.9416 177.26 18.4666C176.431 18.9916 175.491 19.2541 174.441 19.2541ZM175.33 16.8155C176.329 16.8155 177.133 16.4683 177.743 15.774C178.353 15.0627 178.657 13.9958 178.657 12.5733C178.657 11.1508 178.353 10.0924 177.743 9.39806C177.133 8.70374 176.329 8.35658 175.33 8.35658C174.331 8.35658 173.526 8.70374 172.917 9.39806C172.307 10.0924 172.002 11.1508 172.002 12.5733C172.002 13.9958 172.298 15.0627 172.891 15.774C173.501 16.4683 174.314 16.8155 175.33 16.8155Z" fill="#127F7A"/>
<path d="M189.812 19.2541C188.711 19.2541 187.695 19.1271 186.764 18.873C185.849 18.6021 185.079 18.2295 184.452 17.7553L185.341 15.6216C185.985 16.0619 186.696 16.4006 187.475 16.6376C188.254 16.8747 189.041 16.9933 189.837 16.9933C190.684 16.9933 191.311 16.8493 191.717 16.5614C192.14 16.2736 192.352 15.8841 192.352 15.3929C192.352 15.0034 192.217 14.6986 191.946 14.4785C191.692 14.2414 191.277 14.0636 190.701 13.945L188.161 13.4624C187.077 13.2253 186.247 12.8189 185.671 12.2431C185.113 11.6673 184.833 10.9137 184.833 9.98231C184.833 9.18638 185.045 8.48359 185.468 7.87394C185.908 7.26429 186.527 6.79012 187.323 6.45142C188.135 6.09579 189.084 5.91798 190.168 5.91798C191.116 5.91798 192.005 6.04499 192.835 6.29901C193.681 6.55303 194.393 6.93406 194.969 7.4421L194.054 9.49967C193.529 9.0763 192.928 8.74608 192.251 8.50899C191.573 8.2719 190.913 8.15336 190.269 8.15336C189.389 8.15336 188.745 8.31424 188.339 8.636C187.932 8.94082 187.729 9.33879 187.729 9.8299C187.729 10.2025 187.847 10.5158 188.085 10.7698C188.339 11.0069 188.728 11.1847 189.253 11.3032L191.793 11.7859C192.928 12.006 193.783 12.3955 194.359 12.9543C194.952 13.4963 195.248 14.2414 195.248 15.1897C195.248 16.0365 195.019 16.7647 194.562 17.3743C194.105 17.984 193.47 18.4497 192.657 18.7714C191.844 19.0932 190.896 19.2541 189.812 19.2541Z" fill="#127F7A"/>
<path d="M197.463 24.7663L196.727 22.2515C197.523 22.0822 198.191 21.8874 198.733 21.6673C199.275 21.4471 199.724 21.1592 200.08 20.8036C200.435 20.448 200.732 19.9907 200.969 19.4319L201.604 17.9332L201.528 19.1779L195.939 6.172H199.318L203.331 16.1804H202.595L206.633 6.172H209.834L203.992 19.7113C203.602 20.6258 203.179 21.3794 202.722 21.9721C202.264 22.5817 201.773 23.0644 201.248 23.42C200.723 23.7926 200.147 24.0805 199.521 24.2837C198.894 24.4869 198.208 24.6478 197.463 24.7663Z" fill="#127F7A"/>
<path d="M218.481 24.4869V9.37266C218.481 8.84768 218.464 8.31424 218.43 7.77233C218.396 7.23042 218.345 6.69697 218.277 6.172H221.351L221.63 8.86462H221.351C221.605 7.96708 222.138 7.25582 222.951 6.73084C223.781 6.18893 224.738 5.91798 225.822 5.91798C226.956 5.91798 227.947 6.18893 228.794 6.73084C229.64 7.25582 230.301 8.01788 230.775 9.01703C231.249 9.99924 231.486 11.1847 231.486 12.5733C231.486 13.962 231.249 15.1559 230.775 16.155C230.301 17.1542 229.64 17.9247 228.794 18.4666C227.947 18.9916 226.956 19.2541 225.822 19.2541C224.755 19.2541 223.815 18.9916 223.002 18.4666C222.189 17.9416 221.647 17.2388 221.376 16.3582H221.656V24.4869H218.481ZM224.933 16.8155C225.949 16.8155 226.762 16.4683 227.371 15.774C227.981 15.0627 228.286 13.9958 228.286 12.5733C228.286 11.1508 227.981 10.0924 227.371 9.39806C226.762 8.70374 225.949 8.35658 224.933 8.35658C223.933 8.35658 223.129 8.70374 222.519 9.39806C221.91 10.0924 221.605 11.1508 221.605 12.5733C221.605 13.9958 221.91 15.0627 222.519 15.774C223.129 16.4683 223.933 16.8155 224.933 16.8155Z" fill="#127F7A"/>
<path d="M234.233 19V0.304122H237.408V19H234.233Z" fill="#127F7A"/>
<path d="M245.81 19.2541C244.692 19.2541 243.71 18.9916 242.863 18.4666C242.016 17.9247 241.356 17.1542 240.882 16.155C240.407 15.1559 240.17 13.962 240.17 12.5733C240.17 11.1847 240.407 9.99924 240.882 9.01703C241.356 8.01788 242.016 7.25582 242.863 6.73084C243.71 6.18893 244.692 5.91798 245.81 5.91798C246.893 5.91798 247.842 6.18893 248.655 6.73084C249.484 7.25582 250.035 7.96708 250.306 8.86462H250.026L250.306 6.172H253.354C253.303 6.69697 253.252 7.23042 253.202 7.77233C253.168 8.31424 253.151 8.84768 253.151 9.37266V19H250.001L249.976 16.3582H250.28C250.009 17.2388 249.459 17.9416 248.629 18.4666C247.799 18.9916 246.86 19.2541 245.81 19.2541ZM246.699 16.8155C247.698 16.8155 248.502 16.4683 249.112 15.774C249.721 15.0627 250.026 13.9958 250.026 12.5733C250.026 11.1508 249.721 10.0924 249.112 9.39806C248.502 8.70374 247.698 8.35658 246.699 8.35658C245.699 8.35658 244.895 8.70374 244.285 9.39806C243.676 10.0924 243.371 11.1508 243.371 12.5733C243.371 13.9958 243.667 15.0627 244.26 15.774C244.87 16.4683 245.683 16.8155 246.699 16.8155Z" fill="#127F7A"/>
<path d="M262.095 19.2541C260.571 19.2541 259.42 18.8561 258.641 18.0602C257.862 17.2642 257.472 16.0703 257.472 14.4785V8.55979H255.008V6.172H257.472V2.89513L260.647 2.08227V6.172H264.077V8.55979H260.647V14.2753C260.647 15.1559 260.817 15.774 261.155 16.1296C261.494 16.4852 261.96 16.663 262.553 16.663C262.874 16.663 263.145 16.6376 263.365 16.5868C263.602 16.536 263.831 16.4683 264.051 16.3836V18.8984C263.763 19.017 263.442 19.1016 263.086 19.1525C262.747 19.2202 262.417 19.2541 262.095 19.2541Z" fill="#127F7A"/>
<path d="M267.047 19V8.55979H264.583V6.172H267.937L267.047 6.98486V5.02891C267.047 3.43704 267.454 2.23468 268.267 1.42181C269.097 0.608947 270.307 0.202515 271.899 0.202515C272.272 0.202515 272.661 0.227916 273.068 0.27872C273.491 0.329524 273.855 0.422666 274.16 0.558144V3.04754C273.94 2.96287 273.677 2.89513 273.373 2.84433C273.068 2.79352 272.771 2.76812 272.484 2.76812C272.043 2.76812 271.645 2.8528 271.29 3.02214C270.951 3.19149 270.68 3.45398 270.477 3.80961C270.29 4.1483 270.197 4.60554 270.197 5.18132V6.73084L269.74 6.172H273.576V8.55979H270.223V19H267.047Z" fill="#127F7A"/>
<path d="M281.005 19.2541C279.684 19.2541 278.541 18.9831 277.576 18.4412C276.611 17.8993 275.857 17.1288 275.315 16.1296C274.79 15.1305 274.528 13.945 274.528 12.5733C274.528 11.2016 274.79 10.0246 275.315 9.04243C275.857 8.04328 276.611 7.27276 277.576 6.73084C278.541 6.18893 279.684 5.91798 281.005 5.91798C282.326 5.91798 283.469 6.18893 284.434 6.73084C285.417 7.27276 286.17 8.04328 286.695 9.04243C287.237 10.0246 287.508 11.2016 287.508 12.5733C287.508 13.945 287.237 15.1305 286.695 16.1296C286.17 17.1288 285.417 17.8993 284.434 18.4412C283.469 18.9831 282.326 19.2541 281.005 19.2541ZM281.005 16.8155C282.004 16.8155 282.8 16.4683 283.393 15.774C283.986 15.0627 284.282 13.9958 284.282 12.5733C284.282 11.1508 283.986 10.0924 283.393 9.39806C282.8 8.70374 282.004 8.35658 281.005 8.35658C280.006 8.35658 279.21 8.70374 278.617 9.39806C278.025 10.0924 277.728 11.1508 277.728 12.5733C277.728 13.9958 278.025 15.0627 278.617 15.774C279.21 16.4683 280.006 16.8155 281.005 16.8155Z" fill="#127F7A"/>
<path d="M290.221 19V9.44887C290.221 8.90696 290.204 8.35658 290.17 7.79773C290.153 7.23889 290.111 6.69697 290.043 6.172H293.117L293.472 9.67748H292.964C293.134 8.83075 293.413 8.12796 293.803 7.56911C294.209 7.01027 294.7 6.59537 295.276 6.32441C295.852 6.05346 296.478 5.91798 297.156 5.91798C297.46 5.91798 297.706 5.93491 297.892 5.96878C298.079 5.98572 298.265 6.02805 298.451 6.09579L298.426 8.89002C298.104 8.75454 297.825 8.66987 297.588 8.636C297.367 8.60213 297.088 8.5852 296.749 8.5852C296.021 8.5852 295.403 8.73761 294.895 9.04243C294.404 9.34726 294.031 9.77062 293.777 10.3125C293.54 10.8544 293.422 11.4726 293.422 12.1669V19H290.221Z" fill="#127F7A"/>
<path d="M300.219 19V9.37266C300.219 8.84768 300.202 8.31424 300.168 7.77233C300.134 7.23042 300.083 6.69697 300.015 6.172H303.089L303.343 8.7122H303.038C303.394 7.8316 303.936 7.14574 304.664 6.65464C305.409 6.16353 306.29 5.91798 307.306 5.91798C308.322 5.91798 309.16 6.16353 309.821 6.65464C310.498 7.12881 310.972 7.87394 311.243 8.89002H310.837C311.192 7.97554 311.777 7.25582 312.589 6.73084C313.402 6.18893 314.334 5.91798 315.384 5.91798C316.823 5.91798 317.898 6.34135 318.61 7.18808C319.321 8.03482 319.677 9.35572 319.677 11.1508V19H316.501V11.2778C316.501 10.2617 316.332 9.53354 315.993 9.09324C315.655 8.636 315.113 8.40738 314.368 8.40738C313.487 8.40738 312.793 8.72067 312.285 9.34726C311.777 9.95691 311.523 10.7867 311.523 11.8367V19H308.347V11.2778C308.347 10.2617 308.178 9.53354 307.839 9.09324C307.501 8.636 306.959 8.40738 306.214 8.40738C305.333 8.40738 304.639 8.72067 304.131 9.34726C303.639 9.95691 303.394 10.7867 303.394 11.8367V19H300.219Z" fill="#127F7A"/>
</svg>
