<svg width="30" height="52" viewBox="0 0 30 52" fill="none" xmlns="http://www.w3.org/2000/svg">
<path fill-rule="evenodd" clip-rule="evenodd" d="M15.7019 0.802979C13.0516 0.802979 10.903 2.95153 10.903 5.6019C10.903 8.25227 13.0516 10.4008 15.7019 10.4008C18.3523 10.4008 20.5009 8.25227 20.5009 5.6019C20.5009 2.95153 18.3523 0.802979 15.7019 0.802979ZM4.04154 21.0124C3.85273 21.3363 3.70213 21.6089 3.59582 21.8064V29.279C3.59582 30.2205 2.83257 30.9837 1.89105 30.9837C0.94953 30.9837 0.186279 30.2205 0.186279 29.279V21.3869C0.186279 21.1225 0.247797 20.8617 0.365968 20.6251L1.89105 21.3869C0.365968 20.6251 0.366133 20.6248 0.366312 20.6244L0.367891 20.6213L0.371266 20.6146L0.382335 20.5927C0.391618 20.5744 0.404694 20.5488 0.421443 20.5163C0.454933 20.4515 0.503161 20.3592 0.565163 20.2433C0.689067 20.0118 0.868561 19.6853 1.09595 19.2953C1.54865 18.5187 2.20106 17.4731 2.99193 16.4183C3.77541 15.3733 4.73709 14.262 5.8188 13.3968C6.87697 12.5504 8.23674 11.7902 9.78306 11.7902H9.78309H11.4399C13.0224 11.7902 14.54 12.4188 15.659 13.5378C16.778 14.6567 17.4066 16.1744 17.4066 17.7569V36.9648L23.1485 48.5666C23.5661 49.4104 23.2206 50.433 22.3767 50.8507C21.5329 51.2683 20.5103 50.9228 20.0927 50.0789L14.1589 38.0893L9.51258 32.1539C9.46682 32.0954 9.42493 32.0341 9.38717 31.9701C8.52845 30.5165 8.07639 28.8587 8.07832 27.1704V15.9579C8.03558 15.9905 7.9923 16.0243 7.94848 16.0594C7.18015 16.6739 6.41569 17.5355 5.71987 18.4636C5.03146 19.3818 4.45144 20.3092 4.04154 21.0124ZM27.5378 29.279C27.1488 29.2788 26.7686 29.1635 26.445 28.9476L20.0383 24.8274C19.7214 24.623 19.4607 24.3424 19.2802 24.0113C19.0996 23.6801 19.0049 23.309 19.0048 22.9319V20.4067C19.0046 20.2987 19.0336 20.1926 19.0885 20.0996C19.1435 20.0066 19.2224 19.9302 19.3171 19.8782C19.4118 19.8262 19.5187 19.8007 19.6267 19.8042C19.7346 19.8078 19.8396 19.8404 19.9307 19.8985L28.6303 25.6638C28.9829 25.8988 29.2504 26.241 29.3934 26.6398C29.5363 27.0387 29.5471 27.4729 29.4242 27.8784C29.3012 28.2838 29.051 28.6389 28.7106 28.8912C28.3712 29.1426 27.9601 29.2785 27.5378 29.279ZM5.75221 50.5609C6.02652 50.698 6.32902 50.7691 6.63566 50.7688C7.04693 50.7688 7.53812 50.692 7.81727 50.3745C7.81727 50.3745 12.5054 44.2544 13.3578 43.1889C14.1761 42.1671 14.0951 41.5108 13.5368 40.4506C13.3439 40.0841 13.15 39.7528 12.9838 39.4821C12.9264 39.3884 12.8501 39.3078 12.7597 39.2453C12.6694 39.1828 12.5669 39.1398 12.459 39.1192C12.3511 39.0985 12.2401 39.1006 12.133 39.1253C12.026 39.15 11.9253 39.1968 11.8373 39.2626L5.44977 47.2175C4.62936 48.1487 4.40134 49.1077 5.05555 49.9792C5.23937 50.2247 5.47791 50.4238 5.75221 50.5609Z" fill="#3A3C40"/>
</svg>
