<svg width="23" height="40" viewBox="0 0 23 40" fill="none" xmlns="http://www.w3.org/2000/svg">
<path d="M8.8707 23.5467L0.545471 26.3434L3.47231 32.2622C4.23112 31.9586 5.95687 31.2735 6.78939 30.9613C7.62191 30.6491 8.09021 29.834 8.22029 29.4654C8.9791 27.4058 10.4447 23.2605 10.2366 23.1564C10.0284 23.0524 9.23926 23.3732 8.8707 23.5467Z" fill="#3A3C40"/>
<path d="M22.0089 0.197021L8.22029 36.8801L14.074 39.8719C15.0279 37.5088 17.0528 32.4833 17.5211 31.2865C17.9894 30.0898 18.7135 26.7987 19.0171 25.3028C20.2745 17.6713 22.7894 2.2263 22.7894 1.49784C22.7894 0.769381 22.2691 0.327103 22.0089 0.197021Z" fill="#3A3C40"/>
</svg>
